# Brain compartment 3D surface mesh
# Compartment name: 'Accessory supraoptic group' 
# Compartment acronym: 'ASO' 
# Compartment id: 332 
# Compartment parent id: 157 
# Compartment hierarchy path: /997/8/343/1129/1097/157/332/ 
# Compartment color: 0xFF5D50 
# Compartment graph order: 706 
# Compartment atlas id: 465 
# Converted from Allen .msh format using obj_from_allen_msh.py
# Converted at time 2016-04-14 22:04:17.338000
# Original file name was ASO_332.msh
# List of [x, y, z, w] geometric vertices:
v 5837.682617 6353.786621 4993.909180 1.0
v 5798.441895 6221.244141 4999.239258 1.0
v 5825.516602 6389.283691 4992.368652 1.0
v 5780.270020 6308.738281 5006.450684 1.0
v 5786.651367 6222.587891 5005.097168 1.0
v 5763.850586 6282.676758 5025.055664 1.0
v 5818.110352 6224.343262 5006.991211 1.0
v 5850.322754 6304.876465 5010.298828 1.0
v 5871.961426 6383.637207 5006.096680 1.0
v 5802.466309 6408.749512 5014.720215 1.0
v 5836.462891 6419.788574 5006.594727 1.0
v 5865.567871 6416.485840 5018.726074 1.0
v 5786.338867 6197.135254 5055.347656 1.0
v 5768.375000 6220.666504 5039.368652 1.0
v 5804.192871 6194.905762 5045.271973 1.0
v 5829.503906 6218.320801 5036.092773 1.0
v 5882.817871 6329.801758 5043.337402 1.0
v 5884.277344 6380.809082 5028.365234 1.0
v 5838.187500 6434.979980 5042.385254 1.0
v 5759.730957 6281.106445 5080.196777 1.0
v 5889.481934 6377.237305 5075.423828 1.0
v 5798.716309 6419.553711 5062.850586 1.0
v 5871.563965 6422.834473 5061.159180 1.0
v 5769.873535 6215.697754 5109.370605 1.0
v 5833.111328 6218.981934 5107.093262 1.0
v 5882.664551 6315.714355 5089.548828 1.0
v 5806.733398 6197.137695 5109.668945 1.0
v 5764.334961 6271.126465 5115.946777 1.0
v 5798.541016 6410.056641 5106.707520 1.0
v 5875.435547 6407.683105 5111.101074 1.0
v 5837.818359 6429.079102 5104.296387 1.0
v 5787.542480 6209.772949 5137.202637 1.0
v 5878.153320 6322.940430 5132.670898 1.0
v 5819.696777 6220.392578 5139.365723 1.0
v 5780.775879 6239.351074 5145.829102 1.0
v 5777.895020 6274.409180 5140.229004 1.0
v 5815.624023 6397.249512 5134.790039 1.0
v 5859.693359 6391.261719 5138.369629 1.0
v 5806.665039 6236.797852 5152.191895 1.0
v 5825.155762 6341.622559 5158.520508 1.0
v 5855.792969 6330.940918 5153.716309 1.0
v 5847.315918 6315.083984 6219.916504 1.0
v 5790.368164 6232.359863 6224.757324 1.0
v 5839.988281 6353.048340 6217.557617 1.0
v 5813.790527 6366.221191 6225.644531 1.0
v 5779.697754 6208.108398 6250.934082 1.0
v 5813.230957 6211.601074 6234.816406 1.0
v 5876.697266 6324.489746 6239.912598 1.0
v 5782.332520 6281.720703 6231.563965 1.0
v 5866.523926 6372.720703 6233.713867 1.0
v 5838.277344 6425.808594 6260.254395 1.0
v 5808.777344 6196.361328 6268.379395 1.0
v 5830.047852 6216.403809 6263.980469 1.0
v 5764.091797 6237.068848 6261.966797 1.0
v 5762.721191 6294.437988 6275.828613 1.0
v 5797.384277 6408.717773 6268.957031 1.0
v 5881.835449 6388.602539 6263.610352 1.0
v 5865.095215 6425.916016 6278.796387 1.0
v 5882.946777 6316.443848 6284.884766 1.0
v 5889.720703 6363.244141 6300.879395 1.0
v 5780.158691 6205.133301 6339.718750 1.0
v 5769.715332 6216.180176 6334.217285 1.0
v 5832.688477 6221.338379 6335.547363 1.0
v 5761.635254 6279.153809 6339.177734 1.0
v 5792.656250 6407.303711 6316.881348 1.0
v 5881.678711 6408.820312 6329.559570 1.0
v 5812.363770 6427.611328 6312.687988 1.0
v 5837.913574 6434.880859 6333.126953 1.0
v 5804.064453 6196.648438 6336.010742 1.0
v 5885.381348 6337.827637 6334.474609 1.0
v 5802.983887 6409.410156 6360.237305 1.0
v 5867.222656 6414.208984 6357.376465 1.0
v 5783.366211 6223.832520 6368.209473 1.0
v 5814.788086 6214.375000 6367.770020 1.0
v 5770.042969 6275.947266 6360.616211 1.0
v 5862.945801 6329.737305 6362.627441 1.0
v 5863.473633 6384.122070 6376.823730 1.0
v 5837.540039 6420.228516 6367.948730 1.0
v 5806.642578 6237.750488 6376.744629 1.0
v 5795.653320 6298.017578 6379.940918 1.0
v 5812.925293 6385.158203 6376.711426 1.0
v 5838.670410 6388.900879 6382.687012 1.0
# List of vertex normals in [x, y, z] form:
vn 0.328232 -0.094177 -0.939880
vn -0.114548 -0.458527 -0.881256
vn -0.112427 0.193726 -0.974579
vn -0.601746 0.070023 -0.795593
vn -0.661697 -0.396317 -0.636444
vn -0.935471 0.081726 -0.343796
vn 0.541473 -0.480515 -0.689850
vn 0.698242 -0.257233 -0.668015
vn 0.607086 0.094986 -0.788925
vn -0.645279 0.545090 -0.535217
vn 0.062943 0.665756 -0.743500
vn 0.608246 0.647339 -0.459305
vn -0.447601 -0.881638 -0.149521
vn -0.906357 -0.372955 -0.198517
vn 0.323502 -0.910416 -0.257797
vn 0.803955 -0.531174 -0.267395
vn 0.917328 -0.226608 -0.327301
vn 0.937347 0.193893 -0.289429
vn -0.027817 0.980911 -0.192383
vn -0.996460 0.076462 0.034607
vn 0.993317 0.106110 0.045197
vn -0.757248 0.652740 -0.022034
vn 0.707291 0.706757 -0.015060
vn -0.898956 -0.358047 0.252289
vn 0.766052 -0.626648 0.143051
vn 0.951370 -0.306961 0.025787
vn 0.216995 -0.947952 0.232986
vn -0.944733 0.059967 0.322266
vn -0.786118 0.492722 0.373108
vn 0.761505 0.509445 0.400696
vn -0.003586 0.919388 0.393311
vn -0.308548 -0.744720 0.591751
vn 0.837387 -0.143677 0.527374
vn 0.483643 -0.614258 0.623505
vn -0.584030 -0.163101 0.795166
vn -0.773865 0.108414 0.623978
vn -0.365570 0.509888 0.778671
vn 0.372025 0.432556 0.821259
vn 0.154831 -0.291473 0.943954
vn -0.176666 0.150436 0.972702
vn 0.430649 -0.007233 0.902481
vn 0.390228 -0.111862 -0.913895
vn -0.367050 -0.190781 -0.910416
vn 0.073654 0.229843 -0.970428
vn -0.406189 0.321838 -0.855225
vn -0.575882 -0.736877 -0.354050
vn 0.347366 -0.633301 -0.691559
vn 0.862839 -0.173660 -0.474701
vn -0.782639 0.117188 -0.611328
vn 0.557053 0.325974 -0.763809
vn -0.052292 0.811249 -0.582352
vn 0.113770 -0.979248 -0.167648
vn 0.758591 -0.633484 -0.152359
vn -0.942139 -0.164703 -0.291931
vn -0.965027 0.171021 -0.198624
vn -0.748535 0.533646 -0.393570
vn 0.903976 0.282669 -0.320786
vn 0.579147 0.779236 -0.239456
vn 0.947906 -0.315536 -0.043472
vn 0.998718 0.007614 -0.049881
vn -0.423935 -0.865356 0.267258
vn -0.897430 -0.390045 0.206024
vn 0.808197 -0.533813 0.248688
vn -0.981720 0.074295 0.175201
vn -0.888794 0.455292 0.052277
vn 0.927032 0.333908 0.170532
vn -0.513748 0.857880 -0.009262
vn -0.016647 0.986069 0.165482
vn 0.340683 -0.921280 0.187454
vn 0.934036 -0.155945 0.321320
vn -0.693680 0.515274 0.503265
vn 0.570953 0.711853 0.408966
vn -0.512299 -0.395325 0.762390
vn 0.291885 -0.656311 0.695724
vn -0.827179 0.002747 0.561920
vn 0.705887 -0.255615 0.660568
vn 0.631516 0.124146 0.765350
vn 0.009583 0.647095 0.762344
vn 0.160645 -0.191727 0.968201
vn -0.442642 0.040787 0.895752
vn -0.398102 0.298386 0.867447
vn 0.012955 0.166382 0.985962
# List of triangles:
f 3//3 1//1 2//2
f 1//1 7//7 2//2
f 2//2 7//7 15//15
f 7//7 16//16 15//15
f 15//15 16//16 25//25
f 16//16 26//26 25//25
f 25//25 26//26 33//33
f 26//26 21//21 33//33
f 33//33 21//21 30//30
f 21//21 23//23 30//30
f 30//30 23//23 31//31
f 23//23 19//19 31//31
f 31//31 19//19 22//22
f 19//19 10//10 22//22
f 22//22 10//10 6//6
f 10//10 4//4 6//6
f 6//6 4//4 5//5
f 4//4 2//2 5//5
f 5//5 2//2 13//13
f 2//2 15//15 13//13
f 13//13 15//15 27//27
f 15//15 25//25 27//27
f 27//27 25//25 34//34
f 25//25 33//33 34//34
f 34//34 33//33 39//39
f 33//33 41//41 39//39
f 39//39 41//41 40//40
f 41//41 38//38 40//40
f 40//40 38//38 37//37
f 38//38 31//31 37//37
f 37//37 31//31 29//29
f 31//31 22//22 29//29
f 29//29 22//22 20//20
f 22//22 6//6 20//20
f 20//20 6//6 14//14
f 6//6 5//5 14//14
f 14//14 5//5 13//13
f 1//1 8//8 7//7
f 8//8 16//16 7//7
f 2//2 4//4 3//3
f 4//4 10//10 3//3
f 3//3 10//10 11//11
f 10//10 19//19 11//11
f 11//11 19//19 12//12
f 19//19 23//23 12//12
f 12//12 23//23 18//18
f 23//23 21//21 18//18
f 18//18 21//21 17//17
f 21//21 26//26 17//17
f 17//17 26//26 16//16
f 1//1 9//9 8//8
f 9//9 17//17 8//8
f 8//8 17//17 16//16
f 1//1 3//3 9//9
f 3//3 11//11 9//9
f 9//9 11//11 12//12
f 17//17 9//9 18//18
f 9//9 12//12 18//18
f 14//14 13//13 24//24
f 13//13 32//32 24//24
f 24//24 32//32 35//35
f 32//32 39//39 35//35
f 35//35 39//39 40//40
f 14//14 24//24 20//20
f 24//24 28//28 20//20
f 20//20 28//28 29//29
f 28//28 36//36 29//29
f 29//29 36//36 37//37
f 36//36 40//40 37//37
f 13//13 27//27 32//32
f 27//27 34//34 32//32
f 32//32 34//34 39//39
f 35//35 36//36 24//24
f 36//36 28//28 24//24
f 30//30 38//38 33//33
f 38//38 41//41 33//33
f 30//30 31//31 38//38
f 40//40 36//36 35//35
f 44//44 42//42 43//43
f 42//42 47//47 43//43
f 43//43 47//47 46//46
f 47//47 52//52 46//46
f 46//46 52//52 61//61
f 52//52 69//69 61//61
f 61//61 69//69 74//74
f 69//69 63//63 74//74
f 74//74 63//63 76//76
f 63//63 70//70 76//76
f 76//76 70//70 77//77
f 70//70 66//66 77//77
f 77//77 66//66 72//72
f 66//66 58//58 72//72
f 72//72 58//58 68//68
f 58//58 51//51 68//68
f 68//68 51//51 67//67
f 51//51 56//56 67//67
f 67//67 56//56 65//65
f 56//56 55//55 65//65
f 65//65 55//55 64//64
f 55//55 54//54 64//64
f 64//64 54//54 62//62
f 54//54 46//46 62//62
f 62//62 46//46 61//61
f 44//44 43//43 45//45
f 43//43 49//49 45//45
f 45//45 49//49 56//56
f 49//49 55//55 56//56
f 47//47 42//42 48//48
f 42//42 50//50 48//48
f 48//48 50//50 57//57
f 50//50 58//58 57//57
f 57//57 58//58 66//66
f 42//42 44//44 50//50
f 44//44 51//51 50//50
f 50//50 51//51 58//58
f 44//44 45//45 51//51
f 45//45 56//56 51//51
f 47//47 53//53 52//52
f 53//53 69//69 52//52
f 46//46 54//54 43//43
f 54//54 49//49 43//43
f 54//54 55//55 49//49
f 47//47 48//48 53//53
f 48//48 59//59 53//53
f 53//53 59//59 63//63
f 59//59 70//70 63//63
f 59//59 48//48 60//60
f 48//48 57//57 60//60
f 60//60 57//57 66//66
f 63//63 69//69 53//53
f 59//59 60//60 70//70
f 60//60 66//66 70//70
f 65//65 64//64 71//71
f 64//64 75//75 71//71
f 71//71 75//75 80//80
f 75//75 73//73 80//80
f 80//80 73//73 79//79
f 73//73 74//74 79//79
f 79//79 74//74 76//76
f 65//65 71//71 67//67
f 71//71 68//68 67//67
f 74//74 73//73 61//61
f 73//73 62//62 61//61
f 64//64 62//62 75//75
f 62//62 73//73 75//75
f 68//68 71//71 78//78
f 71//71 81//81 78//78
f 78//78 81//81 82//82
f 81//81 80//80 82//82
f 82//82 80//80 79//79
f 68//68 78//78 72//72
f 78//78 77//77 72//72
f 76//76 77//77 79//79
f 77//77 82//82 79//79
f 81//81 71//71 80//80
f 82//82 77//77 78//78
