# Brain compartment 3D surface mesh
# Compartment name: 'Posterior auditory area, layer 6b' 
# Compartment acronym: 'AUDpo6b' 
# Compartment id: 456 
# Compartment parent id: 1027 
# Compartment hierarchy path: /997/8/567/688/695/315/247/1027/456/ 
# Compartment color: 0x019399 
# Compartment graph order: 146 
# Compartment atlas id: 622 
# Converted from Allen .msh format using obj_from_allen_msh.py
# Converted at time 2016-04-14 22:04:18.358000
# Original file name was AUDpo6b_456.msh
# List of [x, y, z, w] geometric vertices:
v 8830.805664 3062.608887 1471.986328 1.0
v 8816.571289 3008.274170 1483.182739 1.0
v 8752.775391 3133.326416 1478.031006 1.0
v 8848.522461 2999.364502 1490.830811 1.0
v 8910.895508 3126.686523 1476.744507 1.0
v 8817.890625 3127.699219 1477.427612 1.0
v 8896.095703 3175.833984 1475.324585 1.0
v 8916.947266 3175.488525 1473.959595 1.0
v 8746.149414 2966.869385 1522.144775 1.0
v 8747.997070 3041.363037 1501.803711 1.0
v 8836.386719 2979.427734 1497.658203 1.0
v 8738.135742 3117.664795 1485.452515 1.0
v 8740.312500 3150.898438 1489.280518 1.0
v 8755.879883 3158.647217 1488.786499 1.0
v 8834.175781 3159.517822 1492.016479 1.0
v 8938.306641 3163.806396 1486.464600 1.0
v 8935.540039 3200.585205 1489.334839 1.0
v 8916.087891 3209.833008 1490.693481 1.0
v 8783.236328 2926.300781 1535.454346 1.0
v 8719.087891 3007.630371 1525.043701 1.0
v 8910.806641 2931.559814 1570.355835 1.0
v 8923.334961 3062.000977 1521.909302 1.0
v 8720.579102 3071.658447 1523.615601 1.0
v 8725.901367 3131.190918 1508.647095 1.0
v 8950.053711 3181.934814 1507.972778 1.0
v 8745.543945 3163.494385 1502.145752 1.0
v 8828.763672 3164.403564 1510.646240 1.0
v 8916.236328 3213.152588 1503.335938 1.0
v 8938.543945 3207.186768 1508.963379 1.0
v 8846.009766 2862.192871 1582.351685 1.0
v 8728.915039 2867.250977 1559.583496 1.0
v 8716.976562 2895.154541 1553.272827 1.0
v 8889.509766 2873.491455 1595.744629 1.0
v 8701.542969 2977.864014 1548.382935 1.0
v 8928.519531 3078.611328 1535.599609 1.0
v 8945.018555 3170.665771 1525.796875 1.0
v 8746.923828 3159.689697 1511.513916 1.0
v 8911.717773 3208.558350 1520.476318 1.0
v 8700.727539 2891.652100 1570.867188 1.0
v 8713.883789 2864.518799 1572.604858 1.0
v 8700.054688 2986.826172 1559.488037 1.0
v 8721.881836 3061.723877 1551.802856 1.0
v 8746.233398 3142.849854 1529.449951 1.0
v 8924.405273 3074.910400 1563.142212 1.0
v 8821.726562 3149.343994 1533.673340 1.0
v 8933.966797 3178.795410 1541.745483 1.0
v 8747.448242 2842.935303 1589.985840 1.0
v 8808.978516 2835.723877 1596.999634 1.0
v 8925.834961 2936.748291 1593.971680 1.0
v 8766.844727 3094.171875 1563.907349 1.0
v 8847.715820 3120.492676 1568.051514 1.0
v 8906.542969 3176.765381 1551.967773 1.0
v 8773.196289 2822.313232 1616.415405 1.0
v 8738.259766 2840.914307 1619.491211 1.0
v 8812.761719 2764.000732 1657.457397 1.0
v 8851.266602 2776.504395 1654.845215 1.0
v 8706.462891 2871.119141 1603.820923 1.0
v 8901.010742 2863.372803 1623.207153 1.0
v 8699.325195 2925.130615 1602.851685 1.0
v 8719.841797 3005.366943 1588.804321 1.0
v 8909.794922 3096.763184 1577.074585 1.0
v 8854.669922 3078.474365 1595.979858 1.0
v 8888.987305 3088.611816 1588.790405 1.0
v 8762.087891 2814.124023 1647.078735 1.0
v 8899.314453 2837.223633 1665.890381 1.0
v 8926.004883 2962.447021 1628.218018 1.0
v 8901.397461 2998.977539 1638.219482 1.0
v 8790.125000 2761.980469 1672.491577 1.0
v 8859.282227 2767.552002 1672.726196 1.0
v 8884.503906 2796.443359 1669.886719 1.0
v 8756.212891 2845.016113 1665.273315 1.0
v 8724.650391 2885.290527 1640.059204 1.0
v 8904.015625 2862.964844 1672.716431 1.0
v 8729.446289 2915.031250 1642.289795 1.0
v 8765.676758 2910.620850 1668.918579 1.0
v 8870.899414 2993.683350 1645.547241 1.0
v 8834.841797 2749.949463 1693.773560 1.0
v 8787.482422 2764.864990 1694.899170 1.0
v 8906.141602 2937.088379 1659.479126 1.0
v 8812.162109 2752.222412 1707.013184 1.0
v 8862.329102 2764.007080 1710.105225 1.0
v 8880.650391 2794.228516 1705.480347 1.0
v 8766.976562 2858.928711 1681.623413 1.0
v 8877.318359 2891.325195 1693.786743 1.0
v 8832.954102 2751.297852 1713.741943 1.0
v 8792.290039 2816.124268 1714.979736 1.0
v 8871.507812 2819.848389 1717.558228 1.0
v 8799.906250 2866.324463 1700.833496 1.0
v 8831.255859 2815.456543 1734.414307 1.0
v 8820.595703 2763.926270 1734.253174 1.0
v 8847.319336 2768.456055 1731.276245 1.0
v 8808.103516 2787.764893 1735.526855 1.0
v 8833.989258 2779.945068 1739.805420 1.0
v 8825.237305 2794.948975 9655.608398 1.0
v 8821.102539 2764.224121 9667.646484 1.0
v 8789.426758 2772.975342 9683.448242 1.0
v 8855.956055 2767.843750 9663.052734 1.0
v 8847.835938 2796.959717 9651.545898 1.0
v 8779.273438 2828.757568 9684.250000 1.0
v 8875.085938 2822.700684 9662.374023 1.0
v 8881.197266 2795.270752 9673.454102 1.0
v 8823.949219 2849.826416 9664.536133 1.0
v 8775.614258 2861.703857 9691.462891 1.0
v 8858.630859 2846.973145 9662.409180 1.0
v 8810.671875 2755.450439 9691.033203 1.0
v 8834.345703 2753.613037 9686.834961 1.0
v 8862.144531 2763.960205 9682.753906 1.0
v 8902.183594 2876.992432 9705.941406 1.0
v 8768.110352 2899.409668 9710.034180 1.0
v 8868.101562 2931.357178 9707.957031 1.0
v 8889.966797 2947.520752 9718.576172 1.0
v 8788.499023 2766.312256 9704.600586 1.0
v 8767.615234 2801.757324 9716.134766 1.0
v 8881.380859 2791.048584 9702.838867 1.0
v 8897.217773 2826.850342 9707.181641 1.0
v 8745.301758 2855.576416 9721.089844 1.0
v 8722.492188 2921.118408 9743.376953 1.0
v 8907.928711 2952.710449 9728.300781 1.0
v 8830.499023 2985.539795 9738.882812 1.0
v 8810.772461 2763.952881 9716.764648 1.0
v 8850.681641 2774.385742 9718.884766 1.0
v 8744.344727 2837.136475 9741.748047 1.0
v 8910.987305 2886.914062 9730.712891 1.0
v 8923.093750 2938.670654 9745.389648 1.0
v 8886.419922 3065.936768 9783.834961 1.0
v 8777.178711 2830.077393 9769.915039 1.0
v 8758.314453 2826.239502 9753.072266 1.0
v 8888.818359 2872.162842 9778.770508 1.0
v 8903.959961 2880.897705 9769.424805 1.0
v 8712.889648 2864.727539 9765.614258 1.0
v 8700.280273 2890.470459 9772.844727 1.0
v 8921.196289 2912.854492 9759.745117 1.0
v 8702.007812 2940.797119 9774.252930 1.0
v 8923.733398 3015.264160 9783.560547 1.0
v 8744.036133 3069.606201 9809.876953 1.0
v 8909.590820 3066.355225 9793.369141 1.0
v 8838.441406 3104.817383 9807.670898 1.0
v 8821.644531 2856.284668 9793.471680 1.0
v 8728.802734 2847.470703 9778.838867 1.0
v 8928.254883 2981.812744 9788.708984 1.0
v 8723.509766 3052.250977 9816.179688 1.0
v 8914.319336 3171.744385 9825.731445 1.0
v 8856.120117 2849.602539 9779.379883 1.0
v 8713.909180 2864.994873 9804.549805 1.0
v 8699.830078 2891.960449 9800.338867 1.0
v 8697.840820 2960.219727 9810.746094 1.0
v 8914.798828 2936.166016 9803.391602 1.0
v 8705.416016 3008.924805 9817.456055 1.0
v 8924.607422 3099.886719 9816.898438 1.0
v 8936.558594 3180.865723 9837.880859 1.0
v 8730.551758 2868.359375 9815.917969 1.0
v 8925.186523 3052.932373 9842.096680 1.0
v 8930.574219 3102.312988 9832.956055 1.0
v 8742.682617 3150.246582 9859.175781 1.0
v 8754.169922 3155.940186 9857.962891 1.0
v 8832.750977 3156.646729 9852.619141 1.0
v 8945.160156 3180.703369 9850.835938 1.0
v 8907.515625 3204.094971 9853.012695 1.0
v 8922.532227 3207.778809 9855.780273 1.0
v 8715.000000 2925.373779 9829.841797 1.0
v 8780.383789 2921.926514 9837.526367 1.0
v 8850.999023 2984.656006 9874.605469 1.0
v 8714.701172 2975.512451 9843.017578 1.0
v 8722.672852 3048.562988 9854.881836 1.0
v 8921.149414 3070.119141 9861.146484 1.0
v 8730.029297 3133.355713 9863.084961 1.0
v 8936.036133 3208.919434 9865.846680 1.0
v 8819.846680 2983.263672 9880.969727 1.0
v 8908.084961 3099.245117 9890.946289 1.0
v 8948.045898 3183.233154 9870.381836 1.0
v 8744.471680 3162.481934 9875.308594 1.0
v 8832.029297 3161.439209 9873.552734 1.0
v 8913.958008 3212.212158 9876.546875 1.0
v 8751.522461 3019.722412 9869.808594 1.0
v 8739.177734 3119.522461 9890.070312 1.0
v 8938.309570 3166.424561 9888.649414 1.0
v 8740.705078 3151.266846 9885.592773 1.0
v 8755.770508 3161.936523 9882.511719 1.0
v 8832.853516 3157.846680 9882.975586 1.0
v 8935.647461 3200.365967 9885.683594 1.0
v 8915.553711 3209.702148 9884.967773 1.0
v 8810.125977 3023.888428 9893.963867 1.0
v 8834.994141 3040.146729 9900.626953 1.0
v 8753.534180 3129.969482 9897.282227 1.0
v 8918.758789 3175.482422 9900.651367 1.0
v 8832.710938 3122.721436 9901.254883 1.0
v 8895.866211 3171.666504 9900.875977 1.0
# List of vertex normals in [x, y, z] form:
vn 0.030609 -0.067413 -0.997253
vn -0.138321 -0.316132 -0.938568
vn -0.223022 0.136490 -0.965195
vn 0.327164 -0.395874 -0.858032
vn 0.487579 -0.239609 -0.839539
vn -0.105087 0.293335 -0.950211
vn -0.164474 0.346710 -0.923431
vn 0.236572 0.162399 -0.957932
vn -0.298553 -0.302689 -0.905106
vn -0.494827 -0.182419 -0.849609
vn 0.097214 -0.503418 -0.858551
vn -0.734695 -0.020966 -0.678070
vn -0.649048 0.441818 -0.619278
vn -0.142761 0.770508 -0.621231
vn -0.244553 0.698486 -0.672516
vn 0.737030 -0.078705 -0.671249
vn 0.640396 0.452499 -0.620575
vn 0.017593 0.752106 -0.658783
vn -0.043655 -0.482651 -0.874710
vn -0.614059 -0.113770 -0.781006
vn 0.701416 -0.392242 -0.595108
vn 0.874847 -0.247147 -0.416595
vn -0.918930 0.051208 -0.391052
vn -0.931976 0.361847 0.021210
vn 0.990738 0.128662 -0.043228
vn -0.480972 0.869797 -0.110001
vn -0.233780 0.970718 0.055084
vn -0.218216 0.967651 -0.126572
vn 0.550980 0.832184 0.062210
vn 0.185287 -0.587357 -0.787811
vn -0.167465 -0.555084 -0.814743
vn -0.584015 -0.286118 -0.759628
vn 0.549179 -0.537949 -0.639526
vn -0.867340 -0.051926 -0.494980
vn 0.995544 -0.089233 0.029968
vn 0.939133 0.040344 0.341171
vn -0.385635 0.805740 0.449478
vn -0.087875 0.864792 0.494370
vn -0.943344 -0.208176 -0.258316
vn -0.642761 -0.654755 -0.397644
vn -0.991425 0.129990 -0.012711
vn -0.900955 0.291672 0.321243
vn -0.525345 0.533264 0.663040
vn 0.870483 0.124649 0.476135
vn -0.243942 0.714218 0.656021
vn 0.642578 0.409973 0.647293
vn -0.204758 -0.810028 -0.549469
vn -0.020920 -0.659805 -0.751129
vn 0.951965 -0.233398 -0.198151
vn -0.274567 0.519424 0.809189
vn -0.258728 0.565826 0.782867
vn 0.018158 0.524216 0.851379
vn -0.393723 -0.770157 -0.501801
vn -0.656342 -0.753860 -0.029556
vn -0.026703 -0.771393 -0.635773
vn 0.388947 -0.703339 -0.594986
vn -0.884628 -0.410965 0.220306
vn 0.825119 -0.438873 -0.355728
vn -0.919327 0.100174 0.380508
vn -0.634232 0.380508 0.673004
vn 0.527252 0.304474 0.793274
vn -0.126373 0.480881 0.867615
vn 0.193207 0.438156 0.877884
vn -0.821655 -0.566116 -0.066223
vn 0.960403 -0.276505 0.033966
vn 0.937973 0.073715 0.338730
vn 0.519073 0.384628 0.763290
vn -0.506134 -0.823059 -0.257660
vn 0.633286 -0.737335 -0.235077
vn 0.792358 -0.537872 -0.287827
vn -0.843994 -0.290817 0.450653
vn -0.756271 -0.051025 0.652252
vn 0.856354 -0.002869 0.516373
vn -0.669724 0.198380 0.715607
vn -0.392365 0.362488 0.845367
vn 0.029419 0.466614 0.883957
vn 0.155029 -0.968033 -0.197144
vn -0.803452 -0.469101 0.366562
vn 0.692093 0.195236 0.694885
vn -0.324158 -0.923431 0.205383
vn 0.618759 -0.760712 0.196030
vn 0.876068 -0.365372 0.314621
vn -0.671051 0.091888 0.735672
vn 0.442261 0.289383 0.848907
vn 0.163269 -0.914337 0.370544
vn -0.741867 0.045517 0.668976
vn 0.593307 0.060181 0.802704
vn -0.429535 0.320663 0.844177
vn 0.001175 0.336929 0.941513
vn -0.237122 -0.626266 0.742661
vn 0.483749 -0.477966 0.733154
vn -0.500488 -0.008713 0.865692
vn 0.139328 -0.097198 0.985458
vn -0.386002 -0.115021 -0.915283
vn -0.203125 -0.658401 -0.724716
vn -0.697189 -0.487564 -0.525528
vn 0.401901 -0.601379 -0.690506
vn 0.061813 -0.089157 -0.994095
vn -0.682327 -0.056641 -0.728836
vn 0.531708 0.102112 -0.840729
vn 0.857605 -0.339294 -0.386490
vn -0.237961 0.299393 -0.923965
vn -0.560898 0.166168 -0.811020
vn 0.179840 0.308090 -0.934189
vn -0.322388 -0.937485 -0.131012
vn 0.141327 -0.989105 -0.040848
vn 0.616959 -0.786819 -0.016449
vn 0.834808 0.046539 -0.548553
vn -0.363708 0.399017 -0.841705
vn 0.128296 0.450775 -0.883362
vn 0.378647 0.372086 -0.847443
vn -0.628799 -0.754288 0.188766
vn -0.817764 -0.571838 -0.065201
vn 0.787064 -0.559692 0.259323
vn 0.960785 -0.265198 -0.080872
vn -0.802170 -0.215805 -0.556717
vn -0.662827 0.213364 -0.717712
vn 0.734665 0.209229 -0.645355
vn -0.130997 0.487152 -0.863419
vn -0.090942 -0.841400 0.532684
vn 0.370422 -0.734253 0.568893
vn -0.763214 -0.634918 -0.119843
vn 0.958481 -0.168198 -0.230209
vn 0.947266 0.007858 -0.320312
vn 0.109467 0.441971 -0.890320
vn -0.267670 -0.789307 0.552567
vn -0.441376 -0.858200 0.262009
vn 0.554504 -0.535065 0.637344
vn 0.853821 -0.426208 0.298859
vn -0.815598 -0.548462 -0.184296
vn -0.947525 -0.186707 -0.259460
vn 0.961334 -0.262543 0.083023
vn -0.900757 0.182983 -0.393860
vn 0.920471 0.155563 -0.358505
vn -0.344727 0.488449 -0.801590
vn 0.535690 0.307510 -0.786407
vn -0.213974 0.534943 -0.817322
vn 0.101807 -0.610046 0.785782
vn -0.495087 -0.833542 0.245087
vn 0.997650 -0.052994 0.043396
vn -0.826523 0.357758 -0.434570
vn 0.093506 0.479340 -0.872620
vn 0.306213 -0.578156 0.756256
vn -0.742462 -0.554749 0.375473
vn -0.892487 -0.230087 0.387939
vn -0.987183 0.034943 0.155640
vn 0.801544 -0.331329 0.497726
vn -0.959930 0.271286 -0.070190
vn 0.835388 0.087860 -0.542557
vn 0.609116 0.385956 -0.692810
vn -0.181335 -0.633774 0.751953
vn 0.983597 -0.080139 0.161514
vn 0.993622 -0.081055 -0.078262
vn -0.633453 0.559692 -0.534271
vn -0.186493 0.808716 -0.557816
vn -0.311020 0.784241 -0.536850
vn 0.925095 0.160614 -0.344070
vn -0.283417 0.757980 -0.587463
vn 0.156570 0.820602 -0.549606
vn -0.440598 -0.315384 0.840469
vn -0.046082 -0.468674 0.882156
vn 0.341766 -0.453247 0.823242
vn -0.731369 -0.102875 0.674164
vn -0.914825 0.074463 0.396881
vn 0.898209 -0.220276 0.380371
vn -0.950989 0.307297 0.034149
vn 0.612167 0.786957 -0.076981
vn -0.076111 -0.426895 0.901077
vn 0.526810 -0.273392 0.804810
vn 0.984329 0.079086 0.157516
vn -0.416351 0.906601 0.068588
vn -0.275558 0.959732 0.054367
vn -0.235321 0.969879 -0.062759
vn -0.438232 -0.141403 0.887665
vn -0.739700 -0.014511 0.672775
vn 0.739212 -0.087753 0.667725
vn -0.665985 0.434128 0.606613
vn -0.141708 0.650436 0.746201
vn -0.204590 0.756516 0.621124
vn 0.629608 0.460678 0.625580
vn -0.085373 0.782303 0.616989
vn -0.286041 -0.088379 0.954117
vn -0.001175 -0.122330 0.992477
vn -0.274567 0.097702 0.956573
vn 0.216354 0.122635 0.968567
vn -0.075012 0.246292 0.966278
vn -0.190735 0.388290 0.901566
# List of triangles:
f 3//3 1//1 2//2
f 1//1 4//4 2//2
f 2//2 4//4 11//11
f 4//4 30//30 11//11
f 11//11 30//30 19//19
f 30//30 31//31 19//19
f 19//19 31//31 9//9
f 31//31 32//32 9//9
f 9//9 32//32 20//20
f 32//32 34//34 20//20
f 20//20 34//34 23//23
f 34//34 41//41 23//23
f 23//23 41//41 42//42
f 41//41 59//59 42//42
f 42//42 59//59 60//60
f 59//59 74//74 60//60
f 60//60 74//74 75//75
f 74//74 72//72 75//75
f 75//75 72//72 83//83
f 72//72 71//71 83//83
f 83//83 71//71 86//86
f 71//71 78//78 86//86
f 86//86 78//78 92//92
f 78//78 90//90 92//92
f 92//92 90//90 93//93
f 90//90 91//91 93//93
f 93//93 91//91 87//87
f 91//91 82//82 87//87
f 87//87 82//82 73//73
f 82//82 65//65 73//73
f 73//73 65//65 66//66
f 65//65 49//49 66//66
f 66//66 49//49 35//35
f 49//49 22//22 35//35
f 35//35 22//22 25//25
f 22//22 16//16 25//25
f 25//25 16//16 17//17
f 16//16 8//8 17//17
f 17//17 8//8 18//18
f 8//8 7//7 18//18
f 18//18 7//7 15//15
f 7//7 6//6 15//15
f 15//15 6//6 3//3
f 6//6 1//1 3//3
f 4//4 1//1 5//5
f 1//1 8//8 5//5
f 5//5 8//8 16//16
f 6//6 7//7 1//1
f 7//7 8//8 1//1
f 10//10 2//2 9//9
f 2//2 19//19 9//9
f 3//3 10//10 12//12
f 10//10 23//23 12//12
f 12//12 23//23 24//24
f 23//23 42//42 24//24
f 24//24 42//42 43//43
f 42//42 60//60 43//43
f 43//43 60//60 50//50
f 60//60 75//75 50//50
f 50//50 75//75 62//62
f 75//75 76//76 62//62
f 62//62 76//76 63//63
f 76//76 67//67 63//63
f 63//63 67//67 61//61
f 67//67 44//44 61//61
f 61//61 44//44 46//46
f 44//44 36//36 46//46
f 46//46 36//36 25//25
f 36//36 35//35 25//25
f 10//10 3//3 2//2
f 3//3 12//12 13//13
f 12//12 24//24 13//13
f 13//13 24//24 26//26
f 24//24 37//37 26//26
f 26//26 37//37 27//27
f 37//37 45//45 27//27
f 27//27 45//45 38//38
f 45//45 52//52 38//38
f 38//38 52//52 46//46
f 52//52 61//61 46//46
f 3//3 13//13 14//14
f 13//13 26//26 14//14
f 14//14 26//26 27//27
f 3//3 14//14 15//15
f 14//14 27//27 15//15
f 15//15 27//27 28//28
f 27//27 38//38 28//28
f 28//28 38//38 29//29
f 38//38 46//46 29//29
f 29//29 46//46 25//25
f 11//11 19//19 2//2
f 9//9 20//20 10//10
f 20//20 23//23 10//10
f 4//4 5//5 21//21
f 5//5 22//22 21//21
f 21//21 22//22 49//49
f 5//5 16//16 22//22
f 15//15 28//28 18//18
f 28//28 29//29 18//18
f 18//18 29//29 17//17
f 29//29 25//25 17//17
f 21//21 33//33 4//4
f 33//33 30//30 4//4
f 40//40 39//39 32//32
f 39//39 34//34 32//32
f 32//32 31//31 40//40
f 31//31 47//47 40//40
f 40//40 47//47 54//54
f 47//47 53//53 54//54
f 54//54 53//53 64//64
f 53//53 68//68 64//64
f 64//64 68//68 78//78
f 68//68 80//80 78//78
f 78//78 80//80 90//90
f 80//80 85//85 90//90
f 90//90 85//85 91//91
f 85//85 81//81 91//91
f 91//91 81//81 82//82
f 81//81 69//69 82//82
f 82//82 69//69 70//70
f 69//69 56//56 70//70
f 70//70 56//56 33//33
f 56//56 30//30 33//33
f 36//36 44//44 35//35
f 44//44 66//66 35//35
f 24//24 43//43 37//37
f 43//43 45//45 37//37
f 31//31 30//30 47//47
f 30//30 48//48 47//47
f 47//47 48//48 53//53
f 48//48 55//55 53//53
f 53//53 55//55 68//68
f 55//55 77//77 68//68
f 68//68 77//77 80//80
f 77//77 85//85 80//80
f 34//34 39//39 41//41
f 39//39 59//59 41//41
f 43//43 50//50 45//45
f 50//50 51//51 45//45
f 45//45 51//51 52//52
f 51//51 62//62 52//52
f 52//52 62//62 63//63
f 48//48 30//30 55//55
f 30//30 56//56 55//55
f 55//55 56//56 77//77
f 56//56 69//69 77//77
f 77//77 69//69 81//81
f 40//40 54//54 57//57
f 54//54 71//71 57//57
f 57//57 71//71 72//72
f 40//40 57//57 39//39
f 57//57 59//59 39//39
f 33//33 21//21 58//58
f 21//21 49//49 58//58
f 58//58 49//49 65//65
f 61//61 52//52 63//63
f 44//44 67//67 66//66
f 67//67 79//79 66//66
f 66//66 79//79 73//73
f 79//79 84//84 73//73
f 73//73 84//84 87//87
f 84//84 89//89 87//87
f 87//87 89//89 93//93
f 89//89 92//92 93//93
f 33//33 58//58 70//70
f 58//58 65//65 70//70
f 70//70 65//65 82//82
f 54//54 64//64 71//71
f 64//64 78//78 71//71
f 57//57 72//72 59//59
f 72//72 74//74 59//59
f 51//51 50//50 62//62
f 76//76 84//84 67//67
f 84//84 79//79 67//67
f 77//77 81//81 85//85
f 83//83 86//86 88//88
f 86//86 92//92 88//88
f 88//88 92//92 89//89
f 83//83 88//88 75//75
f 88//88 89//89 75//75
f 75//75 89//89 76//76
f 89//89 84//84 76//76
f 96//96 94//94 95//95
f 94//94 98//98 95//95
f 95//95 98//98 97//97
f 98//98 100//100 97//97
f 97//97 100//100 101//101
f 100//100 108//108 101//101
f 101//101 108//108 115//115
f 108//108 123//123 115//115
f 115//115 123//123 129//129
f 123//123 132//132 129//129
f 129//129 132//132 147//147
f 132//132 140//140 147//147
f 147//147 140//140 152//152
f 140//140 134//134 152//152
f 152//152 134//134 153//153
f 134//134 149//149 153//153
f 153//153 149//149 157//157
f 149//149 150//150 157//157
f 157//157 150//150 167//167
f 150//150 159//159 167//167
f 167//167 159//159 173//173
f 159//159 158//158 173//173
f 173//173 158//158 156//156
f 158//158 137//137 156//156
f 156//156 137//137 135//135
f 137//137 119//119 135//135
f 135//135 119//119 109//109
f 119//119 102//102 109//109
f 109//109 102//102 103//103
f 102//102 99//99 103//103
f 103//103 99//99 116//116
f 99//99 113//113 116//116
f 116//116 113//113 122//122
f 113//113 127//127 122//122
f 122//122 127//127 139//139
f 127//127 126//126 139//139
f 139//139 126//126 151//151
f 126//126 138//138 151//151
f 151//151 138//138 161//161
f 138//138 168//168 161//161
f 161//161 168//168 160//160
f 168//168 174//174 160//160
f 160//160 174//174 163//163
f 174//174 164//164 163//163
f 163//163 164//164 146//146
f 164//164 148//148 146//146
f 146//146 148//148 133//133
f 148//148 141//141 133//133
f 133//133 141//141 117//117
f 141//141 135//135 117//117
f 117//117 135//135 109//109
f 96//96 99//99 94//94
f 99//99 102//102 94//94
f 94//94 102//102 98//98
f 102//102 104//104 98//98
f 98//98 104//104 100//100
f 104//104 110//110 100//100
f 100//100 110//110 111//111
f 110//110 125//125 111//111
f 111//111 125//125 136//136
f 125//125 142//142 136//136
f 136//136 142//142 150//150
f 142//142 159//159 150//150
f 96//96 95//95 105//105
f 95//95 106//106 105//105
f 105//105 106//106 120//120
f 106//106 121//121 120//120
f 120//120 121//121 138//138
f 121//121 143//143 138//138
f 138//138 143//143 162//162
f 143//143 128//128 162//162
f 162//162 128//128 147//147
f 128//128 129//129 147//147
f 95//95 97//97 106//106
f 97//97 107//107 106//106
f 106//106 107//107 121//121
f 107//107 114//114 121//121
f 121//121 114//114 128//128
f 114//114 129//129 128//128
f 97//97 101//101 107//107
f 101//101 114//114 107//107
f 100//100 111//111 108//108
f 111//111 118//118 108//108
f 108//108 118//118 123//123
f 118//118 124//124 123//123
f 123//123 124//124 132//132
f 124//124 140//140 132//132
f 104//104 102//102 110//110
f 102//102 119//119 110//110
f 110//110 119//119 125//125
f 119//119 137//137 125//125
f 125//125 137//137 142//142
f 137//137 158//158 142//142
f 142//142 158//158 159//159
f 96//96 105//105 112//112
f 105//105 120//120 112//112
f 112//112 120//120 126//126
f 120//120 138//138 126//126
f 112//112 113//113 96//96
f 113//113 99//99 96//96
f 101//101 115//115 114//114
f 115//115 129//129 114//114
f 109//109 103//103 117//117
f 103//103 116//116 117//117
f 117//117 116//116 131//131
f 116//116 130//130 131//131
f 131//131 130//130 144//144
f 130//130 139//139 144//144
f 144//144 139//139 151//151
f 112//112 126//126 113//113
f 126//126 127//127 113//113
f 116//116 122//122 130//130
f 122//122 139//139 130//130
f 117//117 131//131 133//133
f 131//131 146//146 133//133
f 124//124 118//118 134//134
f 118//118 136//136 134//134
f 134//134 136//136 149//149
f 136//136 150//150 149//149
f 111//111 136//136 118//118
f 124//124 134//134 140//140
f 121//121 128//128 143//143
f 144//144 145//145 131//131
f 145//145 146//146 131//131
f 141//141 154//154 135//135
f 154//154 155//155 135//135
f 135//135 155//155 156//156
f 155//155 172//172 156//156
f 156//156 172//172 173//173
f 172//172 181//181 173//173
f 173//173 181//181 167//167
f 181//181 180//180 167//167
f 167//167 180//180 170//170
f 180//180 176//176 170//170
f 170//170 176//176 165//165
f 176//176 169//169 165//165
f 165//165 169//169 147//147
f 169//169 162//162 147//147
f 151//151 160//160 144//144
f 160//160 145//145 144//144
f 160//160 163//163 145//145
f 163//163 146//146 145//145
f 147//147 152//152 165//165
f 152//152 153//153 165//165
f 165//165 153//153 170//170
f 153//153 157//157 170//170
f 170//170 157//157 167//167
f 148//148 164//164 141//141
f 164//164 166//166 141//141
f 141//141 166//166 154//154
f 166//166 171//171 154//154
f 154//154 171//171 155//155
f 171//171 172//172 155//155
f 161//161 160//160 151//151
f 138//138 162//162 168//168
f 162//162 183//183 168//168
f 168//168 183//183 182//182
f 183//183 174//174 182//182
f 182//182 174//174 168//168
f 164//164 174//174 175//175
f 174//174 184//184 175//175
f 175//175 184//184 177//177
f 184//184 178//178 177//177
f 177//177 178//178 171//171
f 178//178 179//179 171//171
f 171//171 179//179 172//172
f 179//179 181//181 172//172
f 164//164 175//175 166//166
f 175//175 177//177 166//166
f 166//166 177//177 171//171
f 162//162 169//169 183//183
f 169//169 185//185 183//183
f 183//183 185//185 186//186
f 185//185 187//187 186//186
f 186//186 187//187 179//179
f 187//187 181//181 179//179
f 174//174 183//183 184//184
f 183//183 186//186 184//184
f 184//184 186//186 178//178
f 186//186 179//179 178//178
f 169//169 176//176 185//185
f 176//176 180//180 185//185
f 185//185 180//180 181//181
f 185//185 181//181 187//187
