# Brain compartment 3D surface mesh
# Compartment name: 'Bed nucleus of the anterior commissure' 
# Compartment acronym: 'BAC' 
# Compartment id: 287 
# Compartment parent id: 809 
# Compartment hierarchy path: /997/8/567/623/803/809/287/ 
# Compartment color: 0xB3C0DF 
# Compartment graph order: 632 
# Compartment atlas id: 35 
# Converted from Allen .msh format using obj_from_allen_msh.py
# Converted at time 2016-04-14 22:04:19.128000
# Original file name was BAC_287.msh
# List of [x, y, z, w] geometric vertices:
v 5386.399902 5079.455078 5007.683594 1.0
v 5387.296387 5142.220703 4989.270508 1.0
v 5431.654785 5170.885742 4992.574707 1.0
v 5390.425781 5202.232910 4991.734375 1.0
v 5358.571777 5126.342285 5000.061035 1.0
v 5421.968750 5228.995117 4998.104492 1.0
v 5425.093262 5088.448730 5013.757812 1.0
v 5461.377441 5154.643555 5021.751465 1.0
v 5359.138184 5196.917480 5010.435059 1.0
v 5342.799805 5153.619629 5018.544434 1.0
v 5448.966797 5230.228027 5008.679199 1.0
v 5394.773926 5240.059082 5009.532715 1.0
v 5424.871094 5264.441406 5025.817871 1.0
v 5360.182617 5019.250000 5050.437988 1.0
v 5384.656250 4998.475586 5058.711914 1.0
v 5429.162109 5034.613281 5049.537109 1.0
v 5343.458008 5063.394043 5044.337402 1.0
v 5463.891113 5077.592285 5050.584473 1.0
v 5343.075684 5186.626953 5041.556152 1.0
v 5475.798340 5214.026855 5046.499512 1.0
v 5386.427734 5254.434082 5039.000000 1.0
v 5460.859375 5256.270996 5045.882812 1.0
v 5443.199707 5269.675781 5042.585938 1.0
v 5416.562500 5277.218262 5054.821777 1.0
v 5335.584473 5139.794434 5057.467285 1.0
v 5482.870605 5119.136719 5065.900879 1.0
v 5363.728027 5229.639648 5060.499512 1.0
v 5359.497559 4962.020508 5105.623535 1.0
v 5375.867188 4960.968262 5100.614746 1.0
v 5403.217773 4962.152832 5107.593262 1.0
v 5340.029297 4997.820312 5101.819824 1.0
v 5456.788086 5013.237305 5103.543945 1.0
v 5487.974609 5077.016602 5097.115723 1.0
v 5486.711914 5220.474121 5086.287109 1.0
v 5397.746094 5270.587402 5106.630859 1.0
v 5335.755371 4993.259277 5140.875488 1.0
v 5340.619141 5164.166016 5115.907715 1.0
v 5372.307617 5225.253906 5159.376953 1.0
v 5462.664551 5263.339355 5145.270996 1.0
v 5426.307129 5278.258789 5151.055664 1.0
v 5442.027832 5275.972656 5141.749512 1.0
v 5374.713867 4945.146484 5148.258789 1.0
v 5483.728516 5050.586426 5142.412598 1.0
v 5480.693848 5232.935059 5185.587402 1.0
v 5358.401367 4951.215820 5195.169922 1.0
v 5344.215820 4965.737793 5189.063477 1.0
v 5401.707031 4952.046387 5165.281250 1.0
v 5448.244629 4997.878418 5154.790039 1.0
v 5335.040039 5043.400879 5229.056641 1.0
v 5489.929199 5155.153809 5225.223145 1.0
v 5404.764648 5265.483398 5171.062988 1.0
v 5339.833008 5101.785645 5235.150879 1.0
v 5380.674316 4950.474121 5204.548828 1.0
v 5417.989258 4972.826172 5209.484375 1.0
v 5479.089355 5060.875000 5206.736816 1.0
v 5384.082520 5212.754883 5224.741699 1.0
v 5445.193359 5249.579102 5214.910156 1.0
v 5465.460938 5229.101562 5228.371582 1.0
v 5417.417969 5243.020020 5224.726074 1.0
v 5376.948730 4978.487305 5247.302734 1.0
v 5402.305664 4995.566895 5258.860840 1.0
v 5358.048828 4994.089844 5254.880859 1.0
v 5343.965332 5025.614746 5254.749512 1.0
v 5453.875977 5058.733398 5256.848633 1.0
v 5477.623047 5128.129395 5260.260742 1.0
v 5472.699219 5182.215820 5259.929199 1.0
v 5354.039551 5102.009277 5263.820801 1.0
v 5398.831543 5192.654297 5261.544922 1.0
v 5435.562012 5203.805176 5266.541504 1.0
v 5390.606934 5028.270996 5281.514648 1.0
v 5369.060059 5047.146973 5281.350098 1.0
v 5371.203125 5098.717773 5279.227539 1.0
v 5447.929688 5145.424805 5283.504395 1.0
v 5418.254395 5146.155762 5287.431152 1.0
v 5431.522949 5109.960449 6094.182617 1.0
v 5393.502441 5098.067383 6094.042480 1.0
v 5413.719238 5160.156738 6099.340332 1.0
v 5359.483398 4992.326660 6130.122559 1.0
v 5364.665039 5089.733887 6110.213379 1.0
v 5382.517090 5008.859375 6114.717773 1.0
v 5412.864746 5000.298340 6127.275391 1.0
v 5456.667480 5076.953613 6122.700684 1.0
v 5461.260254 5140.085449 6112.691895 1.0
v 5385.149414 5163.297852 6119.512207 1.0
v 5458.907227 5183.466309 6120.499023 1.0
v 5386.121582 4972.006836 6138.079590 1.0
v 5341.495117 5011.818359 6146.469238 1.0
v 5342.825684 5101.855957 6143.986328 1.0
v 5479.575684 5104.646484 6143.357422 1.0
v 5379.508789 5181.995605 6142.784180 1.0
v 5481.647461 5173.441406 6145.036133 1.0
v 5411.402832 5230.339355 6163.759277 1.0
v 5429.535156 5244.266602 6172.542969 1.0
v 5457.019531 5226.539062 6156.673340 1.0
v 5357.896484 4959.794434 6163.195801 1.0
v 5384.918457 4950.811035 6170.166992 1.0
v 5415.557129 4965.035156 6176.787598 1.0
v 5337.053711 4989.865723 6170.715332 1.0
v 5463.566406 5037.942871 6165.602539 1.0
v 5488.876953 5168.374023 6168.084961 1.0
v 5485.807617 5072.155273 6192.077148 1.0
v 5384.337402 5243.614258 6225.831055 1.0
v 5481.463379 5232.651367 6218.273926 1.0
v 5359.001465 4951.332520 6246.796387 1.0
v 5346.667480 4962.562500 6225.363281 1.0
v 5380.688477 4944.311523 6213.763672 1.0
v 5467.515625 5018.527832 6248.639160 1.0
v 5334.138672 5110.910645 6297.193359 1.0
v 5342.091309 5152.803223 6228.840332 1.0
v 5408.342773 5269.994141 6236.266113 1.0
v 5444.080078 5268.123535 6225.081543 1.0
v 5462.881348 5260.626465 6236.746094 1.0
v 5488.899414 5076.297852 6278.140137 1.0
v 5425.405273 5279.882324 6262.105957 1.0
v 5383.776855 4953.764160 6266.301758 1.0
v 5415.420410 4971.884277 6270.001953 1.0
v 5337.917480 4999.198242 6277.094727 1.0
v 5340.985352 5182.826172 6319.013672 1.0
v 5486.399414 5216.557617 6304.190918 1.0
v 5384.584473 5260.390625 6299.850098 1.0
v 5434.063965 5278.582031 6318.754395 1.0
v 5356.726074 4991.138184 6302.190430 1.0
v 5466.744629 5049.469238 6313.875977 1.0
v 5340.646973 5067.177734 6329.980469 1.0
v 5486.068848 5202.970215 6324.229004 1.0
v 5468.327148 5246.607422 6331.859863 1.0
v 5451.950684 5265.897461 6331.135742 1.0
v 5402.740723 5269.560059 6330.117676 1.0
v 5384.197754 4995.572266 6317.979492 1.0
v 5426.246094 5015.635742 6320.839355 1.0
v 5481.950195 5145.849121 6331.614258 1.0
v 5359.749512 5219.599609 6340.369141 1.0
v 5355.336914 5084.853027 6364.425293 1.0
v 5463.989258 5140.374512 6358.750488 1.0
v 5343.109863 5154.181641 6357.876953 1.0
v 5384.327637 5074.166504 6369.985352 1.0
v 5427.211914 5076.183105 6360.486816 1.0
v 5358.146973 5194.402344 6365.274902 1.0
v 5461.328613 5211.861816 6361.178223 1.0
v 5395.898926 5241.981934 6364.856934 1.0
v 5432.015625 5248.689453 6365.729492 1.0
v 5395.410156 5127.627441 6387.970215 1.0
v 5433.162109 5136.804688 6380.190918 1.0
v 5362.754395 5135.772461 6378.267090 1.0
v 5390.431641 5201.802246 6383.315430 1.0
v 5432.654297 5215.328125 6379.834961 1.0
# List of vertex normals in [x, y, z] form:
vn 0.016769 -0.412003 -0.911011
vn -0.082794 -0.116577 -0.989716
vn 0.331253 -0.066132 -0.941208
vn -0.254028 0.208481 -0.944443
vn -0.557831 -0.128632 -0.819916
vn 0.098526 0.399979 -0.911194
vn 0.462265 -0.349091 -0.815125
vn 0.750778 -0.109406 -0.651413
vn -0.715805 0.347046 -0.605942
vn -0.906876 0.055878 -0.417664
vn 0.600082 0.351349 -0.718628
vn -0.376877 0.633530 -0.675705
vn 0.084930 0.753387 -0.652054
vn -0.541504 -0.477798 -0.691711
vn 0.001556 -0.666580 -0.745422
vn 0.452652 -0.561340 -0.692810
vn -0.878296 -0.210876 -0.429062
vn 0.739960 -0.348160 -0.575516
vn -0.925934 0.337280 -0.169922
vn 0.894302 0.133911 -0.426941
vn -0.684097 0.670807 -0.286377
vn 0.788055 0.530075 -0.312988
vn 0.434372 0.841873 -0.320236
vn -0.172455 0.957275 -0.232086
vn -0.995834 0.018372 -0.089157
vn 0.919952 -0.085800 -0.382492
vn -0.854431 0.519516 -0.005386
vn -0.605942 -0.714005 -0.350723
vn -0.049500 -0.864044 -0.500946
vn 0.444687 -0.811996 -0.378006
vn -0.903458 -0.314087 -0.291733
vn 0.759445 -0.570190 -0.313217
vn 0.956589 -0.206772 -0.205353
vn 0.967163 0.226944 -0.114273
vn -0.619583 0.784042 0.037231
vn -0.962265 -0.262939 -0.070023
vn -0.964600 0.252090 0.077286
vn -0.856750 0.487473 0.168320
vn 0.669235 0.736618 0.097351
vn -0.109558 0.969391 0.219696
vn 0.323959 0.941406 0.093719
vn -0.034958 -0.991745 -0.123337
vn 0.931458 -0.363632 0.011246
vn 0.886810 0.417313 0.198532
vn -0.473373 -0.846237 0.244492
vn -0.878510 -0.454681 0.146530
vn 0.491318 -0.870743 0.019897
vn 0.765137 -0.643463 0.022385
vn -0.991959 -0.031509 0.122467
vn 0.987259 0.015625 0.158325
vn -0.581223 0.763489 0.281464
vn -0.932465 0.220673 0.286011
vn 0.178146 -0.921661 0.344666
vn 0.658859 -0.682236 0.316910
vn 0.889969 -0.379379 0.252991
vn -0.749466 0.513489 0.417847
vn 0.271332 0.844635 0.461456
vn 0.583542 0.650146 0.486572
vn -0.283249 0.777161 0.561920
vn -0.099075 -0.727432 0.678970
vn 0.387726 -0.643127 0.660324
vn -0.537933 -0.511688 0.669907
vn -0.862091 -0.132782 0.489029
vn 0.651230 -0.382690 0.655304
vn 0.822754 -0.112350 0.557159
vn 0.739166 0.296768 0.604599
vn -0.763245 0.206009 0.612366
vn -0.485306 0.456863 0.745468
vn 0.123688 0.548172 0.827148
vn 0.083435 -0.333023 0.939209
vn -0.459000 -0.096649 0.883148
vn -0.492950 0.181992 0.850800
vn 0.397583 0.028885 0.917099
vn -0.118408 0.160461 0.979904
vn 0.315308 -0.080414 -0.945572
vn -0.308243 0.047409 -0.950119
vn -0.138901 0.446823 -0.883759
vn -0.579742 -0.409164 -0.704605
vn -0.683960 0.065781 -0.726532
vn -0.106567 -0.336136 -0.935745
vn 0.502975 -0.497833 -0.706512
vn 0.697906 -0.294006 -0.653046
vn 0.697006 0.006897 -0.717010
vn -0.576370 0.411087 -0.706238
vn 0.406982 0.420959 -0.810638
vn 0.075012 -0.719345 -0.690582
vn -0.863785 -0.123215 -0.488556
vn -0.938980 0.185699 -0.289490
vn 0.895782 -0.156342 -0.416061
vn -0.749329 0.457794 -0.478439
vn 0.858582 0.236832 -0.454651
vn -0.466797 0.682724 -0.562119
vn -0.043152 0.813721 -0.579651
vn 0.544022 0.677246 -0.495316
vn -0.539581 -0.761856 -0.358322
vn -0.003418 -0.954361 -0.298615
vn 0.604752 -0.758865 -0.241638
vn -0.949142 -0.250366 -0.190872
vn 0.819305 -0.454819 -0.349091
vn 0.989365 0.054062 -0.134979
vn 0.956482 -0.253281 -0.144775
vn -0.800934 0.542480 -0.253342
vn 0.881516 0.446442 -0.153580
vn -0.499725 -0.851761 0.157333
vn -0.827454 -0.561279 0.015778
vn 0.198700 -0.979477 0.033432
vn 0.838669 -0.542908 0.043091
vn -0.999054 0.023880 0.036057
vn -0.957321 0.258286 -0.129669
vn -0.449783 0.857590 -0.249451
vn 0.310974 0.910828 -0.271408
vn 0.645660 0.756088 -0.106934
vn 0.980347 -0.155258 0.121658
vn -0.088013 0.983734 -0.156525
vn 0.020432 -0.894241 0.447098
vn 0.534393 -0.779190 0.327515
vn -0.902405 -0.334763 0.271271
vn -0.948090 0.317825 0.010117
vn 0.977203 0.201675 0.066177
vn -0.744873 0.666992 -0.015991
vn 0.181320 0.949432 0.256287
vn -0.511612 -0.628296 0.586075
vn 0.752609 -0.441727 0.488297
vn -0.931122 -0.149094 0.332794
vn 0.926193 0.098373 0.363953
vn 0.814667 0.485016 0.317902
vn 0.567566 0.758102 0.321136
vn -0.444183 0.867523 0.223816
vn -0.011307 -0.677841 0.735107
vn 0.382385 -0.611420 0.692764
vn 0.899048 -0.122467 0.420364
vn -0.807739 0.510620 0.294617
vn -0.590530 -0.322571 0.739731
vn 0.727097 -0.143509 0.671356
vn -0.910370 0.084396 0.405090
vn 0.048141 -0.437469 0.897934
vn 0.441284 -0.402084 0.802231
vn -0.683075 0.319839 0.656555
vn 0.672287 0.182922 0.717316
vn -0.322830 0.628983 0.707214
vn 0.325638 0.608566 0.723587
vn -0.071075 -0.120682 0.990128
vn 0.399506 -0.161407 0.902405
vn -0.532043 0.004547 0.846695
vn -0.274811 0.233948 0.932587
vn 0.200943 0.227051 0.952911
# List of triangles:
f 3//3 1//1 2//2
f 1//1 5//5 2//2
f 2//2 5//5 4//4
f 5//5 9//9 4//4
f 4//4 9//9 12//12
f 9//9 21//21 12//12
f 12//12 21//21 24//24
f 21//21 35//35 24//24
f 24//24 35//35 40//40
f 35//35 51//51 40//40
f 40//40 51//51 59//59
f 51//51 56//56 59//59
f 59//59 56//56 68//68
f 56//56 67//67 68//68
f 68//68 67//67 72//72
f 67//67 71//71 72//72
f 72//72 71//71 74//74
f 71//71 70//70 74//74
f 74//74 70//70 73//73
f 70//70 64//64 73//73
f 73//73 64//64 65//65
f 64//64 55//55 65//65
f 65//65 55//55 50//50
f 55//55 43//43 50//50
f 50//50 43//43 33//33
f 43//43 32//32 33//33
f 33//33 32//32 18//18
f 32//32 16//16 18//18
f 18//18 16//16 7//7
f 16//16 1//1 7//7
f 7//7 1//1 3//3
f 2//2 4//4 3//3
f 4//4 6//6 3//3
f 3//3 6//6 11//11
f 6//6 13//13 11//11
f 11//11 13//13 23//23
f 13//13 24//24 23//23
f 23//23 24//24 41//41
f 24//24 40//40 41//41
f 41//41 40//40 57//57
f 40//40 59//59 57//57
f 57//57 59//59 69//69
f 59//59 68//68 69//69
f 69//69 68//68 74//74
f 68//68 72//72 74//74
f 7//7 3//3 8//8
f 3//3 11//11 8//8
f 8//8 11//11 20//20
f 11//11 22//22 20//20
f 20//20 22//22 34//34
f 22//22 39//39 34//34
f 34//34 39//39 44//44
f 39//39 58//58 44//44
f 44//44 58//58 66//66
f 58//58 69//69 66//66
f 66//66 69//69 73//73
f 69//69 74//74 73//73
f 9//9 5//5 10//10
f 5//5 17//17 10//10
f 10//10 17//17 25//25
f 17//17 31//31 25//25
f 25//25 31//31 36//36
f 31//31 28//28 36//36
f 36//36 28//28 46//46
f 28//28 45//45 46//46
f 46//46 45//45 62//62
f 45//45 60//60 62//62
f 62//62 60//60 70//70
f 60//60 61//61 70//70
f 70//70 61//61 64//64
f 61//61 54//54 64//64
f 64//64 54//54 55//55
f 54//54 48//48 55//55
f 55//55 48//48 43//43
f 48//48 32//32 43//43
f 4//4 12//12 6//6
f 12//12 13//13 6//6
f 15//15 14//14 1//1
f 14//14 5//5 1//1
f 1//1 16//16 15//15
f 16//16 30//30 15//15
f 15//15 30//30 29//29
f 30//30 42//42 29//29
f 29//29 42//42 28//28
f 42//42 45//45 28//28
f 5//5 14//14 17//17
f 14//14 31//31 17//17
f 7//7 8//8 18//18
f 8//8 26//26 18//18
f 18//18 26//26 33//33
f 26//26 34//34 33//33
f 33//33 34//34 50//50
f 34//34 44//44 50//50
f 50//50 44//44 66//66
f 9//9 10//10 19//19
f 10//10 25//25 19//19
f 19//19 25//25 37//37
f 25//25 49//49 37//37
f 37//37 49//49 52//52
f 49//49 63//63 52//52
f 52//52 63//63 67//67
f 63//63 71//71 67//67
f 9//9 19//19 21//21
f 19//19 27//27 21//21
f 21//21 27//27 35//35
f 27//27 38//38 35//35
f 35//35 38//38 51//51
f 38//38 56//56 51//51
f 11//11 23//23 22//22
f 23//23 39//39 22//22
f 13//13 12//12 24//24
f 8//8 20//20 26//26
f 20//20 34//34 26//26
f 29//29 28//28 15//15
f 28//28 14//14 15//15
f 14//14 28//28 31//31
f 16//16 32//32 30//30
f 32//32 48//48 30//30
f 30//30 48//48 47//47
f 48//48 54//54 47//47
f 47//47 54//54 53//53
f 54//54 61//61 53//53
f 53//53 61//61 60//60
f 19//19 37//37 27//27
f 37//37 38//38 27//27
f 23//23 41//41 39//39
f 41//41 57//57 39//39
f 39//39 57//57 58//58
f 57//57 69//69 58//58
f 30//30 47//47 42//42
f 47//47 53//53 42//42
f 42//42 53//53 45//45
f 53//53 60//60 45//45
f 25//25 36//36 49//49
f 36//36 46//46 49//49
f 49//49 46//46 63//63
f 46//46 62//62 63//63
f 63//63 62//62 71//71
f 62//62 70//70 71//71
f 37//37 52//52 38//38
f 52//52 56//56 38//38
f 50//50 66//66 65//65
f 66//66 73//73 65//65
f 67//67 56//56 52//52
f 77//77 75//75 76//76
f 75//75 80//80 76//76
f 76//76 80//80 79//79
f 80//80 78//78 79//79
f 79//79 78//78 87//87
f 78//78 98//98 87//87
f 87//87 98//98 88//88
f 98//98 108//108 88//88
f 88//88 108//108 109//109
f 108//108 118//118 109//109
f 109//109 118//118 102//102
f 118//118 120//120 102//102
f 102//102 120//120 110//110
f 120//120 128//128 110//110
f 110//110 128//128 114//114
f 128//128 121//121 114//114
f 114//114 121//121 111//111
f 121//121 112//112 111//111
f 111//111 112//112 94//94
f 112//112 103//103 94//94
f 94//94 103//103 91//91
f 103//103 100//100 91//91
f 91//91 100//100 89//89
f 100//100 101//101 89//89
f 89//89 101//101 99//99
f 101//101 107//107 99//99
f 99//99 107//107 97//97
f 107//107 116//116 97//97
f 97//97 116//116 106//106
f 116//116 115//115 106//106
f 106//106 115//115 104//104
f 115//115 122//122 104//104
f 104//104 122//122 117//117
f 122//122 133//133 117//117
f 117//117 133//133 124//124
f 133//133 135//135 124//124
f 124//124 135//135 108//108
f 135//135 118//118 108//108
f 75//75 81//81 80//80
f 81//81 86//86 80//80
f 80//80 86//86 78//78
f 86//86 95//95 78//78
f 78//78 95//95 98//98
f 95//95 105//105 98//98
f 98//98 105//105 117//117
f 105//105 104//104 117//117
f 75//75 82//82 81//81
f 82//82 99//99 81//81
f 81//81 99//99 97//97
f 82//82 75//75 83//83
f 75//75 85//85 83//83
f 83//83 85//85 91//91
f 85//85 94//94 91//91
f 79//79 84//84 76//76
f 84//84 77//77 76//76
f 75//75 77//77 85//85
f 77//77 93//93 85//85
f 85//85 93//93 94//94
f 93//93 111//111 94//94
f 87//87 88//88 79//79
f 88//88 90//90 79//79
f 79//79 90//90 84//84
f 90//90 92//92 84//84
f 84//84 92//92 77//77
f 92//92 93//93 77//77
f 82//82 83//83 89//89
f 83//83 91//91 89//89
f 95//95 86//86 96//96
f 86//86 97//97 96//96
f 96//96 97//97 106//106
f 86//86 81//81 97//97
f 99//99 82//82 89//89
f 90//90 88//88 102//102
f 88//88 109//109 102//102
f 105//105 95//95 104//104
f 95//95 96//96 104//104
f 104//104 96//96 106//106
f 110//110 92//92 102//102
f 92//92 90//90 102//102
f 92//92 110//110 93//93
f 110//110 114//114 93//93
f 93//93 114//114 111//111
f 101//101 100//100 113//113
f 100//100 119//119 113//113
f 113//113 119//119 125//125
f 119//119 126//126 125//125
f 125//125 126//126 139//139
f 126//126 141//141 139//139
f 139//139 141//141 146//146
f 141//141 140//140 146//146
f 146//146 140//140 145//145
f 140//140 138//138 145//145
f 145//145 138//138 144//144
f 138//138 135//135 144//144
f 144//144 135//135 133//133
f 98//98 117//117 108//108
f 117//117 124//124 108//108
f 101//101 113//113 107//107
f 113//113 123//123 107//107
f 107//107 123//123 116//116
f 123//123 130//130 116//116
f 116//116 130//130 129//129
f 130//130 136//136 129//129
f 129//129 136//136 133//133
f 136//136 142//142 133//133
f 133//133 142//142 144//144
f 142//142 145//145 144//144
f 100//100 103//103 119//119
f 103//103 126//126 119//119
f 103//103 112//112 126//126
f 112//112 127//127 126//126
f 126//126 127//127 141//141
f 127//127 121//121 141//141
f 141//141 121//121 140//140
f 121//121 128//128 140//140
f 140//140 128//128 132//132
f 128//128 120//120 132//132
f 132//132 120//120 118//118
f 112//112 121//121 127//127
f 115//115 129//129 122//122
f 129//129 133//133 122//122
f 116//116 129//129 115//115
f 113//113 131//131 123//123
f 131//131 134//134 123//123
f 123//123 134//134 137//137
f 134//134 143//143 137//137
f 137//137 143//143 136//136
f 143//143 142//142 136//136
f 113//113 125//125 131//131
f 125//125 134//134 131//131
f 118//118 135//135 132//132
f 135//135 138//138 132//132
f 132//132 138//138 140//140
f 136//136 130//130 137//137
f 130//130 123//123 137//137
f 125//125 139//139 134//134
f 139//139 143//143 134//134
f 139//139 146//146 143//143
f 146//146 142//142 143//143
f 146//146 145//145 142//142
