# Brain compartment 3D surface mesh
# Compartment name: 'gracile fascicle' 
# Compartment acronym: 'grf' 
# Compartment id: 388 
# Compartment parent id: 514 
# Compartment hierarchy path: /997/1009/967/792/932/514/388/ 
# Compartment color: 0xCCCCCC 
# Compartment graph order: 1117 
# Compartment atlas id: 472 
# Converted from Allen .msh format using obj_from_allen_msh.py
# Converted at time 2016-04-14 22:04:49.608000
# Original file name was grf_388.msh
# List of [x, y, z, w] geometric vertices:
v 12936.122070 5012.037109 5436.363770 1.0
v 12954.797852 5061.946777 5408.131836 1.0
v 13000.744141 4985.888672 5404.380859 1.0
v 13011.236328 5049.967773 5407.251465 1.0
v 12911.666016 5283.080566 5432.504883 1.0
v 12933.239258 5364.552246 5408.447266 1.0
v 12948.616211 5312.315918 5402.987793 1.0
v 12967.264648 5367.270996 5409.583496 1.0
v 12993.456055 5387.571289 5432.488281 1.0
v 12976.182617 4937.896973 5453.780762 1.0
v 12959.458008 4958.489746 5435.024414 1.0
v 13037.445312 4953.386719 5439.536133 1.0
v 13041.303711 4957.845703 5435.735352 1.0
v 13042.651367 5061.341797 5435.195312 1.0
v 12937.611328 5090.032715 5431.249512 1.0
v 12998.760742 5104.675781 5445.413574 1.0
v 12988.514648 5287.619141 5432.246094 1.0
v 12920.883789 5211.988281 5504.990723 1.0
v 12909.770508 5386.259277 5432.090820 1.0
v 12910.805664 5417.093262 5459.935547 1.0
v 13014.865234 4934.257812 5456.079590 1.0
v 12933.086914 4999.157227 5447.395020 1.0
v 13065.977539 4984.302734 5457.309082 1.0
v 12907.416992 5038.279297 5458.003906 1.0
v 13064.879883 5041.383301 5457.877441 1.0
v 12936.368164 5104.998535 5476.051758 1.0
v 12938.806641 5136.844727 5502.088867 1.0
v 13016.066406 5097.449707 5471.750977 1.0
v 12884.701172 5377.580566 5459.383789 1.0
v 12883.565430 5280.696289 5480.655273 1.0
v 13016.072266 5309.031738 5465.223145 1.0
v 13018.495117 5378.993164 5466.766113 1.0
v 12948.196289 5447.017090 5486.918457 1.0
v 12987.372070 5418.162598 5459.363770 1.0
v 13044.932617 5079.114746 5513.478516 1.0
v 12909.519531 5104.934082 5525.585938 1.0
v 13012.380859 5128.981445 5497.163574 1.0
v 13019.431641 5157.741211 5536.596191 1.0
v 12992.964844 5196.590820 5513.570801 1.0
v 13019.203125 5352.391113 5484.831543 1.0
v 12935.709961 4983.261719 5595.083984 1.0
v 13064.913086 5062.833984 5524.059570 1.0
v 12908.290039 5051.096680 5567.524414 1.0
v 13041.047852 5145.732910 5559.104980 1.0
v 12908.804688 5217.949219 5528.993164 1.0
v 13019.567383 5240.284180 5535.790527 1.0
v 13040.165039 5305.250977 5510.308105 1.0
v 13040.010742 5364.919434 5522.178711 1.0
v 12883.997070 5389.563477 5544.348633 1.0
v 12909.777344 5415.550781 5554.743164 1.0
v 12967.167969 5440.401367 5541.649902 1.0
v 12985.968750 5419.893066 5565.838867 1.0
v 12933.511719 5441.339844 5539.923340 1.0
v 12983.940430 4935.078613 5593.644043 1.0
v 13019.255859 4934.041016 5590.009766 1.0
v 13037.525391 4955.798828 5613.324219 1.0
v 12929.292969 5027.795898 5564.633301 1.0
v 13065.241211 4988.910156 5605.085938 1.0
v 12885.377930 5240.019043 5551.868164 1.0
v 12883.110352 5345.105957 5627.798340 1.0
v 12960.047852 4955.353516 5611.682129 1.0
v 12884.256836 5099.219727 5561.782715 1.0
v 13042.023438 5252.716309 5558.812988 1.0
v 13040.823242 5363.916992 5569.935059 1.0
v 13015.737305 5391.059082 5585.162109 1.0
v 13064.467773 5068.153320 5618.774902 1.0
v 12906.340820 5087.611816 5599.273926 1.0
v 13041.681641 5118.702148 5605.356934 1.0
v 13064.609375 5157.418457 5580.825195 1.0
v 13065.665039 5239.367676 5582.445312 1.0
v 12885.008789 5206.238770 5698.629395 1.0
v 13040.549805 5306.676758 5638.114746 1.0
v 12935.816406 5417.160156 5584.934570 1.0
v 12883.957031 5146.543945 5639.073730 1.0
v 13064.894531 5243.980469 5617.275879 1.0
v 13045.074219 5260.564453 5638.164551 1.0
v 13018.291016 5339.086914 5636.900391 1.0
v 12907.335938 5394.824707 5597.720215 1.0
v 12939.396484 5028.250977 5645.091797 1.0
v 13041.201172 4990.065918 5640.756836 1.0
v 12909.773438 5061.969727 5638.930664 1.0
v 13052.115234 5143.219238 5628.739258 1.0
v 12909.998047 5369.700684 5638.037109 1.0
v 12982.684570 5391.718262 5622.437988 1.0
v 13026.857422 5003.890625 5660.363281 1.0
v 12965.670898 5006.360352 5665.756348 1.0
v 12909.164062 5116.028809 5671.465820 1.0
v 12886.796875 5267.190918 5675.220215 1.0
v 12931.011719 5392.234863 5636.704590 1.0
v 12974.907227 5371.300293 5660.531738 1.0
v 12931.602539 5081.410156 5690.952148 1.0
v 12907.326172 5173.668457 5696.973633 1.0
v 13013.320312 5314.750488 5687.979004 1.0
v 12909.046875 5295.221680 5681.884766 1.0
v 12910.622070 5335.334473 5691.551270 1.0
v 12907.241211 5367.138672 5738.636230 1.0
v 12975.918945 5370.917480 5708.376953 1.0
v 12960.158203 5005.032227 5715.677734 1.0
v 12943.612305 5026.878906 5725.992188 1.0
v 13024.009766 4997.729004 5715.553223 1.0
v 12907.448242 5115.810547 5713.168457 1.0
v 12883.993164 5141.224121 5736.366211 1.0
v 13039.584961 4957.057617 5760.714355 1.0
v 12909.291016 5059.864258 5733.785645 1.0
v 13041.730469 5075.900391 5736.031738 1.0
v 13042.817383 5247.236328 5736.346191 1.0
v 13045.231445 5138.721680 5738.013672 1.0
v 13039.844727 5314.234375 5735.709961 1.0
v 12883.947266 5326.175293 5737.713379 1.0
v 13017.807617 5342.305176 5739.489746 1.0
v 12926.340820 5393.975098 5751.540039 1.0
v 12967.213867 5392.275879 5743.064941 1.0
v 13019.274414 4933.941895 5785.126465 1.0
v 12960.539062 4955.585938 5764.929199 1.0
v 13065.848633 4986.201660 5772.039551 1.0
v 13066.059570 5066.123047 5758.497070 1.0
v 12930.673828 5017.657227 5819.737793 1.0
v 13042.461914 5094.115234 5752.703125 1.0
v 12905.721680 5090.240234 5775.117676 1.0
v 13065.291992 5241.565918 5758.487793 1.0
v 13064.272461 5155.902344 5755.922852 1.0
v 13043.618164 5271.631836 5783.797852 1.0
v 13018.171875 5389.776367 5791.371094 1.0
v 12909.061523 5396.333496 5781.464355 1.0
v 12984.217773 4934.768555 5781.804199 1.0
v 12935.645508 4983.274414 5780.231934 1.0
v 12911.152344 5043.951172 5812.919434 1.0
v 12883.064453 5111.505371 5781.136230 1.0
v 13063.019531 5247.453125 5794.686035 1.0
v 12884.861328 5366.507324 5796.622559 1.0
v 13039.694336 5369.632812 5822.589844 1.0
v 12913.960938 5419.872070 5808.608398 1.0
v 12981.483398 5419.512695 5801.688477 1.0
v 13039.146484 5148.411621 5818.898926 1.0
v 13066.158203 5162.958984 5794.668945 1.0
v 12885.403320 5206.959961 5822.074707 1.0
v 13065.347656 5051.593750 5862.340332 1.0
v 12907.406250 5088.758789 5868.110840 1.0
v 13044.256836 5081.402344 5860.178711 1.0
v 12885.197266 5302.657227 5916.051270 1.0
v 12884.142578 5389.893066 5831.231934 1.0
v 12966.886719 5441.297363 5835.370117 1.0
v 12932.727539 5440.370605 5833.400879 1.0
v 13015.972656 4934.929688 5918.581055 1.0
v 13038.836914 4953.771484 5934.560059 1.0
v 13066.016602 4983.240723 5916.793945 1.0
v 12885.142578 5107.660156 5842.830566 1.0
v 13010.413086 5236.542969 5849.374512 1.0
v 13039.493164 5316.847656 5874.911133 1.0
v 12912.695312 5418.286133 5915.589355 1.0
v 12989.426758 5417.228516 5914.619629 1.0
v 12980.997070 4934.694336 5916.253418 1.0
v 12960.917969 4956.695312 5939.188477 1.0
v 12908.719727 5200.951172 5866.850098 1.0
v 12992.020508 5190.762207 5862.755371 1.0
v 13016.453125 5306.488770 5905.821289 1.0
v 12884.678711 5384.132324 5906.411133 1.0
v 13019.269531 5349.540039 5890.502441 1.0
v 13016.972656 5380.772949 5911.002441 1.0
v 12933.040039 4999.214355 5921.454102 1.0
v 12906.427734 5051.137207 5915.834473 1.0
v 13063.941406 5043.651855 5917.659180 1.0
v 13016.251953 5105.171387 5895.312012 1.0
v 12935.520508 5109.617676 5898.566895 1.0
v 12988.986328 5135.016113 5883.262695 1.0
v 12962.644531 5134.573730 5900.595703 1.0
v 12912.411133 5285.353027 5943.360352 1.0
v 12951.797852 5447.021484 5888.067871 1.0
v 13043.161133 5062.776855 5939.251953 1.0
v 12928.441406 5165.194336 5889.736328 1.0
v 12987.122070 5286.301270 5944.377930 1.0
v 12909.106445 5389.310547 5942.515137 1.0
v 12956.774414 4990.686523 5943.507812 1.0
v 13040.465820 4958.649414 5940.198730 1.0
v 12933.472656 5019.447266 5941.114258 1.0
v 12952.060547 5073.812500 5959.507324 1.0
v 12935.547852 5091.775391 5940.195801 1.0
v 13011.732422 5090.341309 5941.559570 1.0
v 12931.631836 5309.473633 5965.683594 1.0
v 12985.375977 5381.504395 5948.716797 1.0
v 12982.564453 4988.418945 5966.777832 1.0
v 13017.228516 4983.619629 5965.218750 1.0
v 13002.436523 5061.271973 5966.977051 1.0
v 12969.192383 5306.624023 5964.353027 1.0
v 12932.085938 5367.284180 5965.613281 1.0
# List of vertex normals in [x, y, z] form:
vn -0.560379 -0.223938 -0.797379
vn -0.274429 0.235382 -0.932343
vn -0.039673 -0.393570 -0.918427
vn 0.370499 0.238190 -0.897766
vn -0.676971 -0.311996 -0.666595
vn -0.275513 0.318665 -0.906921
vn -0.003815 -0.345337 -0.938461
vn 0.348328 0.185120 -0.918900
vn 0.319733 0.567307 -0.758896
vn -0.132233 -0.832428 -0.538101
vn -0.684677 -0.652679 -0.324341
vn 0.467712 -0.757217 -0.455887
vn 0.626755 -0.273453 -0.729630
vn 0.727097 0.414093 -0.547577
vn -0.665909 0.435165 -0.605942
vn 0.269913 0.740005 -0.616058
vn 0.622482 -0.314499 -0.716644
vn -0.284988 -0.533356 -0.796417
vn -0.506622 0.430191 -0.747147
vn -0.572632 0.743317 -0.345764
vn 0.361511 -0.912537 -0.191254
vn -0.889191 -0.395294 -0.230362
vn 0.919235 -0.290146 -0.266052
vn -0.947678 -0.112732 -0.298630
vn 0.880798 0.368896 -0.296799
vn -0.856232 0.409103 -0.315399
vn -0.560104 0.421570 -0.713120
vn 0.746323 0.538132 -0.391663
vn -0.962738 0.126541 -0.238953
vn -0.889389 -0.327499 -0.318909
vn 0.883179 -0.148102 -0.445023
vn 0.886719 0.256866 -0.384338
vn 0.022171 0.938919 -0.343414
vn 0.640152 0.735260 -0.222672
vn 0.834412 0.523422 -0.172562
vn -0.892761 0.207123 -0.400085
vn 0.515350 0.574280 -0.636078
vn 0.759521 0.232590 -0.607468
vn 0.472015 -0.084381 -0.877533
vn 0.926697 0.009766 -0.375671
vn -0.913437 -0.391724 0.110291
vn 0.951233 0.304001 -0.052277
vn -0.918884 -0.394150 -0.016403
vn 0.851318 0.029266 -0.523804
vn -0.785843 -0.333206 -0.520950
vn 0.790588 -0.276215 -0.546478
vn 0.909378 -0.123322 -0.397232
vn 0.950699 0.245773 -0.189056
vn -0.867920 0.493851 0.053040
vn -0.668625 0.707947 0.227432
vn 0.351089 0.920670 0.170517
vn 0.383163 0.855255 0.348862
vn -0.289078 0.917725 0.272369
vn -0.388351 -0.904312 0.177185
vn 0.115112 -0.916046 0.384186
vn 0.645950 -0.707214 0.287338
vn -0.883499 -0.460953 0.083206
vn 0.940887 -0.251282 0.227051
vn -0.981308 -0.101791 -0.163269
vn -0.883545 0.329041 0.333267
vn -0.477646 -0.724686 0.496643
vn -0.943802 -0.143112 -0.297897
vn 0.936127 0.075638 -0.343414
vn 0.916489 0.356873 0.180710
vn 0.696381 0.683075 0.220093
vn 0.947769 0.217072 0.233627
vn -0.937210 -0.299606 0.178482
vn 0.977036 -0.098434 -0.188950
vn 0.943207 -0.280487 -0.177963
vn 0.846817 0.387833 -0.363968
vn -0.993973 -0.094009 0.056290
vn 0.927872 0.250778 0.275925
vn -0.200409 0.837753 0.507935
vn -0.919525 -0.289612 0.265671
vn 0.954742 0.184647 0.233154
vn 0.884125 0.355789 0.302856
vn 0.782654 0.564301 0.262650
vn -0.497940 0.767044 0.404572
vn -0.845749 -0.458542 0.272812
vn 0.719177 -0.296555 0.628342
vn -0.883499 -0.402557 0.239487
vn 0.917099 -0.051483 0.395279
vn -0.590576 0.715271 0.373627
vn 0.183731 0.865768 0.465469
vn 0.503616 -0.614380 0.607361
vn -0.478455 -0.835800 0.269211
vn -0.937286 -0.279846 0.207748
vn -0.956528 0.262772 0.126404
vn -0.220947 0.799255 0.558868
vn 0.308716 0.830658 0.463333
vn -0.899979 -0.434631 -0.033325
vn -0.955978 -0.283920 -0.074036
vn 0.990265 0.137909 -0.018616
vn -0.948929 0.315445 0.000427
vn -0.961609 0.272934 -0.028046
vn -0.716339 0.597534 -0.360245
vn 0.244171 0.912247 -0.328873
vn -0.228210 -0.861694 -0.453186
vn -0.829834 -0.497330 -0.252991
vn 0.710876 -0.394272 -0.582382
vn -0.934662 -0.254044 -0.248703
vn -0.960205 -0.182861 -0.211090
vn 0.536636 -0.752792 -0.381195
vn -0.836182 -0.444733 -0.320923
vn 0.842560 0.073120 -0.533600
vn 0.854797 0.141541 -0.499252
vn 0.905762 -0.304825 -0.294388
vn 0.943085 0.228424 -0.241669
vn -0.926071 0.246902 -0.285324
vn 0.808731 0.508163 -0.296127
vn -0.300003 0.793274 -0.529800
vn 0.198914 0.860321 -0.469299
vn 0.110062 -0.908676 -0.402710
vn -0.560837 -0.697678 -0.445740
vn 0.914551 -0.342697 -0.214783
vn 0.897537 0.305679 -0.317734
vn -0.907471 -0.414001 -0.071259
vn 0.961960 0.253525 -0.101685
vn -0.883759 -0.442337 -0.152603
vn 0.863678 0.289642 -0.412506
vn 0.960999 -0.206802 -0.183563
vn 0.906952 0.398956 -0.135101
vn 0.639465 0.686676 -0.345764
vn -0.720764 0.591370 -0.361588
vn -0.400055 -0.893066 -0.205856
vn -0.917343 -0.381119 -0.114883
vn -0.965851 -0.256668 -0.034958
vn -0.889053 -0.452316 -0.070618
vn 0.953110 0.103790 0.284210
vn -0.933670 0.306992 -0.184387
vn 0.889191 0.457397 0.010101
vn -0.515976 0.773300 -0.368423
vn 0.375381 0.879669 -0.291977
vn 0.883224 -0.016083 0.468643
vn 0.825394 -0.497665 0.266525
vn -0.955643 -0.137360 0.260483
vn 0.944458 0.321121 0.069733
vn -0.942719 -0.180115 0.280762
vn 0.859436 0.486618 0.156693
vn -0.960983 -0.060883 0.269791
vn -0.864822 0.495193 -0.082703
vn 0.268951 0.921005 -0.281754
vn -0.346848 0.921829 -0.172882
vn 0.390762 -0.900818 0.189240
vn 0.396957 -0.773666 0.493790
vn 0.922424 -0.225586 0.313385
vn -0.920425 -0.173279 0.350372
vn 0.789444 -0.270325 0.551086
vn 0.958008 0.045776 0.283035
vn -0.643753 0.731110 0.225922
vn 0.565048 0.746078 0.352219
vn -0.150436 -0.935349 0.320099
vn -0.623550 -0.661697 0.416321
vn -0.469315 -0.108734 0.876297
vn 0.512466 0.098969 0.852966
vn 0.870712 -0.147705 0.469070
vn -0.936722 0.257874 0.236725
vn 0.928619 0.111481 0.353867
vn 0.888931 0.158875 0.429565
vn -0.876373 -0.394409 0.276352
vn -0.948776 -0.075623 0.306717
vn 0.914169 0.264465 0.307144
vn 0.669052 0.572800 0.473541
vn -0.758331 0.253418 0.600571
vn 0.405350 0.586273 0.701401
vn 0.100555 0.667618 0.737671
vn -0.692520 -0.267395 0.669998
vn -0.021973 0.938705 0.344009
vn 0.747040 0.383163 0.543228
vn -0.101364 0.437805 0.893326
vn 0.567703 -0.409744 0.714005
vn -0.439880 0.485977 0.755188
vn -0.672501 -0.359360 0.646973
vn 0.661285 -0.327087 0.675049
vn -0.694839 -0.292313 0.657059
vn -0.617310 0.125015 0.776718
vn -0.410080 0.596207 0.690170
vn 0.357468 0.716858 0.598587
vn -0.174210 -0.459396 0.870972
vn 0.454346 0.374725 0.808167
vn -0.301529 -0.340347 0.890625
vn 0.331390 -0.280548 0.900803
vn 0.151489 0.330597 0.931534
vn 0.276550 -0.154648 0.948456
vn -0.252197 0.184921 0.949829
# List of triangles:
f 3//3 1//1 2//2
f 1//1 15//15 2//2
f 2//2 15//15 16//16
f 15//15 27//27 16//16
f 16//16 27//27 37//37
f 27//27 39//39 37//37
f 37//37 39//39 38//38
f 39//39 46//46 38//38
f 38//38 46//46 63//63
f 46//46 47//47 63//63
f 63//63 47//47 48//48
f 47//47 40//40 48//48
f 48//48 40//40 32//32
f 40//40 31//31 32//32
f 32//32 31//31 17//17
f 31//31 46//46 17//17
f 17//17 46//46 39//39
f 3//3 2//2 4//4
f 2//2 16//16 4//4
f 4//4 16//16 14//14
f 16//16 28//28 14//14
f 14//14 28//28 35//35
f 28//28 44//44 35//35
f 35//35 44//44 68//68
f 44//44 69//69 68//68
f 68//68 69//69 82//82
f 69//69 75//75 82//82
f 82//82 75//75 76//76
f 75//75 70//70 76//76
f 76//76 70//70 63//63
f 70//70 44//44 63//63
f 63//63 44//44 38//38
f 44//44 28//28 38//38
f 38//38 28//28 37//37
f 28//28 16//16 37//37
f 7//7 5//5 6//6
f 5//5 19//19 6//6
f 6//6 19//19 9//9
f 19//19 20//20 9//9
f 9//9 20//20 33//33
f 20//20 53//53 33//33
f 33//33 53//53 51//51
f 53//53 52//52 51//51
f 51//51 52//52 34//34
f 52//52 65//65 34//34
f 34//34 65//65 32//32
f 65//65 48//48 32//32
f 6//6 8//8 7//7
f 8//8 17//17 7//7
f 7//7 17//17 18//18
f 17//17 39//39 18//18
f 18//18 39//39 27//27
f 6//6 9//9 8//8
f 9//9 17//17 8//8
f 3//3 10//10 1//1
f 10//10 11//11 1//1
f 1//1 11//11 22//22
f 11//11 41//41 22//22
f 22//22 41//41 57//57
f 41//41 79//79 57//57
f 57//57 79//79 81//81
f 79//79 91//91 81//81
f 81//81 91//91 87//87
f 91//91 101//101 87//87
f 87//87 101//101 92//92
f 101//101 102//102 92//92
f 92//92 102//102 71//71
f 102//102 88//88 71//71
f 71//71 88//88 60//60
f 88//88 94//94 60//60
f 60//60 94//94 95//95
f 94//94 109//109 95//95
f 95//95 109//109 96//96
f 109//109 130//130 96//96
f 96//96 130//130 124//124
f 130//130 132//132 124//124
f 124//124 132//132 111//111
f 132//132 133//133 111//111
f 111//111 133//133 112//112
f 133//133 123//123 112//112
f 112//112 123//123 97//97
f 123//123 110//110 97//97
f 97//97 110//110 77//77
f 110//110 93//93 77//77
f 77//77 93//93 72//72
f 93//93 76//76 72//72
f 72//72 76//76 63//63
f 3//3 12//12 10//10
f 12//12 21//21 10//10
f 10//10 21//21 55//55
f 21//21 56//56 55//55
f 55//55 56//56 85//85
f 56//56 80//80 85//85
f 85//85 80//80 66//66
f 80//80 58//58 66//66
f 66//66 58//58 42//42
f 58//58 23//23 42//42
f 42//42 23//23 25//25
f 23//23 14//14 25//25
f 25//25 14//14 35//35
f 12//12 3//3 13//13
f 3//3 4//4 13//13
f 13//13 4//4 14//14
f 13//13 23//23 12//12
f 23//23 56//56 12//12
f 12//12 56//56 21//21
f 1//1 22//22 24//24
f 22//22 57//57 24//24
f 24//24 57//57 43//43
f 57//57 81//81 43//43
f 43//43 81//81 67//67
f 81//81 87//87 67//67
f 67//67 87//87 74//74
f 87//87 92//92 74//74
f 74//74 92//92 71//71
f 1//1 24//24 15//15
f 24//24 26//26 15//15
f 15//15 26//26 27//27
f 26//26 36//36 27//27
f 27//27 36//36 62//62
f 36//36 43//43 62//62
f 62//62 43//43 67//67
f 13//13 14//14 23//23
f 7//7 18//18 5//5
f 18//18 45//45 5//5
f 5//5 45//45 30//30
f 45//45 59//59 30//30
f 30//30 59//59 29//29
f 59//59 71//71 29//29
f 29//29 71//71 60//60
f 19//19 5//5 29//29
f 5//5 30//30 29//29
f 17//17 9//9 32//32
f 9//9 34//34 32//32
f 19//19 29//29 20//20
f 29//29 49//49 20//20
f 20//20 49//49 50//50
f 49//49 60//60 50//50
f 50//50 60//60 78//78
f 60//60 83//83 78//78
f 78//78 83//83 89//89
f 83//83 90//90 89//89
f 89//89 90//90 84//84
f 90//90 65//65 84//84
f 84//84 65//65 52//52
f 9//9 33//33 34//34
f 33//33 51//51 34//34
f 26//26 24//24 36//36
f 24//24 43//43 36//36
f 25//25 35//35 42//42
f 35//35 66//66 42//42
f 40//40 47//47 31//31
f 47//47 46//46 31//31
f 11//11 10//10 54//54
f 10//10 55//55 54//54
f 54//54 55//55 61//61
f 55//55 85//85 61//61
f 61//61 85//85 86//86
f 85//85 98//98 86//86
f 86//86 98//98 99//99
f 98//98 114//114 99//99
f 99//99 114//114 126//126
f 114//114 153//153 126//126
f 126//126 153//153 160//160
f 153//153 173//173 160//160
f 160//160 173//173 175//175
f 173//173 181//181 175//175
f 175//175 181//181 176//176
f 181//181 183//183 176//176
f 176//176 183//183 177//177
f 183//183 178//178 177//177
f 177//177 178//178 166//166
f 178//178 165//165 166//166
f 166//166 165//165 155//155
f 165//165 163//163 155//155
f 155//155 163//163 134//134
f 163//163 139//139 134//134
f 134//134 139//139 118//118
f 139//139 116//116 118//118
f 118//118 116//116 105//105
f 116//116 100//100 105//105
f 105//105 100//100 93//93
f 100//100 85//85 93//93
f 93//93 85//85 82//82
f 85//85 66//66 82//82
f 82//82 66//66 68//68
f 66//66 35//35 68//68
f 18//18 27//27 45//45
f 27//27 62//62 45//45
f 45//45 62//62 59//59
f 62//62 74//74 59//59
f 59//59 74//74 71//71
f 29//29 60//60 49//49
f 20//20 50//50 53//53
f 50//50 73//73 53//53
f 53//53 73//73 52//52
f 73//73 84//84 52//52
f 54//54 61//61 11//11
f 61//61 41//41 11//11
f 63//63 48//48 64//64
f 48//48 65//65 64//64
f 64//64 65//65 77//77
f 65//65 90//90 77//77
f 77//77 90//90 97//97
f 90//90 83//83 97//97
f 97//97 83//83 96//96
f 83//83 95//95 96//96
f 23//23 58//58 56//56
f 58//58 80//80 56//56
f 44//44 70//70 69//69
f 70//70 75//75 69//69
f 63//63 64//64 72//72
f 64//64 77//77 72//72
f 50//50 78//78 73//73
f 78//78 84//84 73//73
f 41//41 61//61 79//79
f 61//61 86//86 79//79
f 79//79 86//86 99//99
f 67//67 74//74 62//62
f 84//84 78//78 89//89
f 76//76 93//93 82//82
f 95//95 83//83 60//60
f 85//85 100//100 98//98
f 100//100 103//103 98//98
f 98//98 103//103 113//113
f 103//103 144//144 113//113
f 113//113 144//144 152//152
f 144//144 145//145 152//152
f 152//152 145//145 153//153
f 145//145 181//181 153//153
f 153//153 181//181 173//173
f 99//99 104//104 91//91
f 104//104 101//101 91//91
f 91//91 79//79 99//99
f 105//105 93//93 106//106
f 93//93 108//108 106//106
f 106//106 108//108 122//122
f 108//108 149//149 122//122
f 122//122 149//149 129//129
f 149//149 148//148 129//129
f 129//129 148//148 134//134
f 148//148 155//155 134//134
f 105//105 106//106 107//107
f 106//106 120//120 107//107
f 107//107 120//120 121//121
f 120//120 129//129 121//121
f 121//121 129//129 135//135
f 129//129 134//134 135//135
f 135//135 134//134 107//107
f 134//134 118//118 107//107
f 107//107 118//118 105//105
f 94//94 88//88 109//109
f 88//88 102//102 109//109
f 109//109 102//102 140//140
f 102//102 136//136 140//140
f 140//140 136//136 167//167
f 136//136 154//154 167//167
f 167//167 154//154 179//179
f 154//154 171//171 179//179
f 179//179 171//171 184//184
f 171//171 180//180 184//184
f 184//184 180//180 185//185
f 180//180 172//172 185//185
f 185//185 172//172 167//167
f 172//172 140//140 167//167
f 93//93 110//110 108//108
f 110//110 131//131 108//108
f 108//108 131//131 149//149
f 131//131 158//158 149//149
f 149//149 158//158 156//156
f 158//158 159//159 156//156
f 156//156 159//159 171//171
f 159//159 180//180 171//171
f 96//96 111//111 97//97
f 111//111 112//112 97//97
f 98//98 113//113 114//114
f 113//113 125//125 114//114
f 114//114 125//125 153//153
f 125//125 152//152 153//153
f 100//100 115//115 103//103
f 115//115 145//145 103//103
f 103//103 145//145 144//144
f 100//100 116//116 115//115
f 116//116 137//137 115//115
f 115//115 137//137 146//146
f 137//137 162//162 146//146
f 146//146 162//162 169//169
f 162//162 137//137 169//169
f 169//169 137//137 139//139
f 137//137 116//116 139//139
f 99//99 117//117 104//104
f 117//117 127//127 104//104
f 104//104 127//127 101//101
f 127//127 119//119 101//101
f 101//101 119//119 102//102
f 119//119 128//128 102//102
f 102//102 128//128 136//136
f 128//128 147//147 136//136
f 136//136 147//147 154//154
f 147//147 138//138 154//154
f 154//154 138//138 164//164
f 138//138 161//161 164//164
f 164//164 161//161 176//176
f 161//161 175//175 176//176
f 106//106 122//122 120//120
f 122//122 129//129 120//120
f 96//96 124//124 111//111
f 99//99 126//126 117//117
f 126//126 160//160 117//117
f 117//117 160//160 161//161
f 160//160 175//175 161//161
f 110//110 123//123 131//131
f 123//123 133//133 131//131
f 131//131 133//133 151//151
f 133//133 142//142 151//151
f 151//151 142//142 168//168
f 142//142 143//143 168//168
f 168//168 143//143 150//150
f 143//143 132//132 150//150
f 150//150 132//132 141//141
f 132//132 130//130 141//141
f 141//141 130//130 157//157
f 130//130 140//140 157//157
f 157//157 140//140 172//172
f 135//135 107//107 121//121
f 128//128 119//119 138//138
f 119//119 127//127 138//138
f 138//138 127//127 161//161
f 127//127 117//117 161//161
f 140//140 130//130 109//109
f 133//133 132//132 142//142
f 132//132 143//143 142//142
f 147//147 128//128 138//138
f 113//113 152//152 125//125
f 115//115 146//146 145//145
f 146//146 174//174 145//145
f 145//145 174//174 182//182
f 174//174 169//169 182//182
f 182//182 169//169 183//183
f 169//169 178//178 183//183
f 149//149 156//156 148//148
f 156//156 171//171 148//148
f 148//148 171//171 155//155
f 171//171 154//154 155//155
f 155//155 154//154 166//166
f 154//154 170//170 166//166
f 166//166 170//170 164//164
f 170//170 154//154 164//164
f 158//158 131//131 159//159
f 131//131 151//151 159//159
f 159//159 151//151 180//180
f 151//151 172//172 180//180
f 141//141 157//157 150//150
f 157//157 172//172 150//150
f 150//150 172//172 168//168
f 172//172 151//151 168//168
f 139//139 163//163 169//169
f 163//163 178//178 169//169
f 169//169 174//174 146//146
f 176//176 177//177 164//164
f 177//177 166//166 164//164
f 165//165 178//178 163//163
f 145//145 182//182 181//181
f 182//182 183//183 181//181
f 167//167 179//179 185//185
f 179//179 184//184 185//185
