# Brain compartment 3D surface mesh
# Compartment name: 'vomeronasal nerve' 
# Compartment acronym: 'von' 
# Compartment id: 949 
# Compartment parent id: 967 
# Compartment hierarchy path: /997/1009/967/949/ 
# Compartment color: 0xCCCCCC 
# Compartment graph order: 1064 
# Compartment atlas id: 684 
# Converted from Allen .msh format using obj_from_allen_msh.py
# Converted at time 2016-04-14 22:05:37.599000
# Original file name was von_949.msh
# List of [x, y, z, w] geometric vertices:
v 2262.100586 3671.984131 4746.995117 1.0
v 2255.172119 3706.888672 4723.660645 1.0
v 2295.378174 3705.214111 4723.677734 1.0
v 2253.360596 3771.479980 4725.465332 1.0
v 2308.597168 3778.025879 4736.408203 1.0
v 2162.592041 3652.080811 4776.042969 1.0
v 2144.739258 3587.369141 4746.101074 1.0
v 2107.019531 3606.068604 4741.391113 1.0
v 2187.812500 3624.604736 4775.750977 1.0
v 2201.126709 3665.593750 4748.609375 1.0
v 2314.107666 3667.345947 4772.431152 1.0
v 2321.654541 3681.211914 4750.237793 1.0
v 2224.859131 3716.407715 4750.360352 1.0
v 2227.246338 3797.966064 4754.923340 1.0
v 2321.319580 3800.568604 4755.321777 1.0
v 2080.375244 3551.969971 4776.757324 1.0
v 2171.403564 3554.940186 4776.809570 1.0
v 2077.665283 3645.420166 4776.692383 1.0
v 2212.961426 3592.916748 4803.453613 1.0
v 2258.549805 3612.472656 4788.412598 1.0
v 2138.694824 3684.167969 4805.477051 1.0
v 2191.686279 3741.697266 4775.390137 1.0
v 2351.465088 3706.534180 4779.416504 1.0
v 2350.380615 3771.634521 4781.002930 1.0
v 2294.737305 3826.788330 4781.086426 1.0
v 2253.925537 3825.824707 4780.813477 1.0
v 2105.537109 3523.424561 4805.937500 1.0
v 2155.001709 3532.601562 4800.184570 1.0
v 2043.872925 3620.296387 4819.379395 1.0
v 2042.023193 3581.582031 4829.965332 1.0
v 2104.846436 3675.419678 4803.548828 1.0
v 2198.785889 3769.737793 4843.495605 1.0
v 2230.269531 3801.796387 4866.901367 1.0
v 2120.235596 3517.071045 4843.310059 1.0
v 2075.698975 3553.187012 4870.887207 1.0
v 2079.168213 3649.707031 4869.731934 1.0
v 2320.656250 3800.408936 4868.994141 1.0
v 2171.007812 3552.329834 4872.191406 1.0
v 2211.205322 3594.249023 4848.814453 1.0
v 2261.100586 3617.221191 4865.169922 1.0
v 2343.974365 3696.995850 4874.637207 1.0
v 2130.743896 3676.742188 4849.041016 1.0
v 2180.500488 3722.059570 4870.295898 1.0
v 2351.512695 3755.361572 4865.830566 1.0
v 2276.438965 3832.545166 4841.944824 1.0
v 2177.545898 3629.052002 4881.147461 1.0
v 2165.810547 3652.396729 4873.527832 1.0
v 2221.536621 3753.287842 4891.391113 1.0
v 2131.328613 3579.742676 4905.855957 1.0
v 2113.187500 3618.694824 4905.100586 1.0
v 2266.466553 3669.191650 4898.876953 1.0
v 2319.477051 3679.117432 4899.081055 1.0
v 2217.607910 3710.004150 4902.879395 1.0
v 2314.921631 3761.489990 4907.967773 1.0
v 2254.123291 3746.124268 4925.349609 1.0
v 2287.681396 3706.454834 4929.981445 1.0
v 2191.963379 3654.404053 6502.836914 1.0
v 2170.270020 3585.687500 6471.632324 1.0
v 2106.395020 3608.461182 6467.572266 1.0
v 2208.396973 3641.646484 6505.188965 1.0
v 2229.029541 3680.955078 6474.500000 1.0
v 2279.432129 3683.171875 6473.502441 1.0
v 2295.331299 3771.544922 6474.510742 1.0
v 2324.786377 3686.921387 6502.967773 1.0
v 2251.398438 3758.279541 6472.699707 1.0
v 2323.459961 3798.425537 6503.296875 1.0
v 2080.094482 3551.352539 6502.474609 1.0
v 2195.011230 3554.570557 6500.293945 1.0
v 2076.713623 3647.348145 6502.546387 1.0
v 2234.743652 3619.689941 6527.508789 1.0
v 2291.368652 3650.033447 6503.074707 1.0
v 2163.480225 3682.902344 6530.001465 1.0
v 2196.711670 3751.103760 6510.537598 1.0
v 2222.993164 3763.487793 6500.310547 1.0
v 2227.809326 3800.490479 6507.075195 1.0
v 2107.103516 3523.168945 6530.065430 1.0
v 2168.049561 3517.269043 6558.205566 1.0
v 2209.963135 3562.297607 6520.563965 1.0
v 2042.030884 3618.382324 6544.968750 1.0
v 2043.653442 3580.445068 6555.538086 1.0
v 2270.921631 3625.143555 6528.535645 1.0
v 2103.937012 3675.066650 6528.980957 1.0
v 2350.861572 3704.596924 6528.570312 1.0
v 2349.381836 3771.479736 6529.176270 1.0
v 2295.182129 3825.435791 6529.141602 1.0
v 2253.444580 3824.414551 6529.221191 1.0
v 2094.234619 3532.489014 6574.457031 1.0
v 2227.259033 3587.498291 6570.035156 1.0
v 2253.260010 3623.678711 6573.459961 1.0
v 2191.404785 3737.485107 6581.936523 1.0
v 2195.541016 3552.875488 6598.690430 1.0
v 2291.783447 3646.590820 6607.786621 1.0
v 2081.015381 3649.820068 6596.268066 1.0
v 2324.011230 3677.813232 6645.821289 1.0
v 2163.604980 3679.748047 6571.853516 1.0
v 2350.966553 3769.135986 6621.005371 1.0
v 2325.480225 3796.746582 6645.415527 1.0
v 2227.167236 3798.216064 6647.581055 1.0
v 2255.399414 3825.907227 6620.347168 1.0
v 2082.909424 3559.179688 6604.957520 1.0
v 2215.219727 3636.719971 6590.277832 1.0
v 2349.408203 3703.588135 6620.826660 1.0
v 2193.713867 3665.723633 6596.194336 1.0
v 2200.323730 3770.604736 6622.100098 1.0
v 2296.457275 3824.455811 6620.716309 1.0
v 2169.332275 3579.598145 6626.561523 1.0
v 2102.996582 3621.282227 6624.415527 1.0
v 2168.752930 3620.444580 6626.028809 1.0
v 2227.886719 3664.020264 6612.144043 1.0
v 2230.019531 3679.549316 6650.843750 1.0
v 2282.677490 3703.740479 6680.064453 1.0
v 2268.100830 3768.908691 6682.114258 1.0
# List of vertex normals in [x, y, z] form:
vn 0.003265 -0.569885 -0.821701
vn -0.462769 -0.209518 -0.861359
vn 0.215469 -0.231064 -0.948776
vn -0.102539 0.336960 -0.935913
vn 0.567947 0.161041 -0.807144
vn -0.228409 0.251648 -0.940475
vn 0.264557 -0.147705 -0.952988
vn -0.187836 0.278107 -0.941986
vn 0.214172 -0.366379 -0.905472
vn -0.343124 -0.100876 -0.933853
vn 0.580704 -0.747620 -0.322220
vn 0.563599 -0.499344 -0.658020
vn -0.512421 -0.016678 -0.858566
vn -0.569016 0.560837 -0.601379
vn 0.431030 0.708862 -0.558304
vn -0.626633 -0.559311 -0.542664
vn 0.400894 -0.586502 -0.703766
vn -0.633423 0.559494 -0.534531
vn 0.561935 -0.772446 -0.295883
vn 0.423141 -0.799408 -0.426468
vn -0.434174 0.780273 -0.450150
vn -0.775345 0.356003 -0.521591
vn 0.919998 -0.265884 -0.287888
vn 0.898697 0.340454 -0.276413
vn 0.264740 0.905930 -0.330444
vn -0.358704 0.911606 -0.200745
vn -0.154663 -0.898621 -0.410538
vn 0.522873 -0.840591 -0.141388
vn -0.944489 0.248840 -0.214447
vn -0.960602 -0.208939 0.183258
vn -0.426910 0.899734 -0.090591
vn -0.834137 0.524796 0.169632
vn -0.620544 0.699692 0.354004
vn -0.202744 -0.955414 0.214600
vn -0.562134 -0.535431 0.630310
vn -0.627121 0.592651 0.505432
vn 0.572952 0.743988 0.343765
vn 0.463150 -0.636459 0.616760
vn 0.580231 -0.719208 0.382172
vn 0.385300 -0.806168 0.449020
vn 0.754364 -0.628647 0.189011
vn -0.433792 0.791260 0.430939
vn -0.761810 0.460587 0.455490
vn 0.918350 0.148285 0.366913
vn -0.007111 0.937592 0.347626
vn 0.191177 -0.171021 0.966537
vn -0.279221 0.389465 0.877686
vn -0.665329 0.385361 0.639374
vn 0.126236 -0.281784 0.951126
vn -0.145172 0.265778 0.953033
vn 0.086990 -0.667252 0.739716
vn 0.640945 -0.436798 0.631165
vn -0.475204 -0.034103 0.879196
vn 0.520782 0.296173 0.800644
vn -0.220459 0.462296 0.858871
vn 0.071777 -0.251678 0.965134
vn -0.195969 0.275803 -0.941010
vn 0.265747 -0.130325 -0.955185
vn -0.226288 0.154984 -0.961639
vn 0.364822 -0.305023 -0.879684
vn -0.285400 -0.163330 -0.944382
vn 0.200012 -0.449677 -0.870499
vn 0.252167 0.162643 -0.953903
vn 0.675354 -0.237869 -0.698059
vn -0.347565 0.429916 -0.833267
vn 0.565125 0.588867 -0.577805
vn -0.577927 -0.519470 -0.629379
vn 0.439438 -0.608643 -0.660629
vn -0.535126 0.604477 -0.590103
vn 0.455200 -0.705017 -0.543808
vn 0.457214 -0.698914 -0.549957
vn -0.572647 0.701141 -0.424789
vn -0.782318 0.388245 -0.487045
vn -0.559479 0.353836 -0.749496
vn -0.499161 0.664169 -0.556503
vn -0.198425 -0.927124 -0.317871
vn 0.262360 -0.950684 0.165375
vn 0.819550 -0.493484 -0.291199
vn -0.960464 0.213287 -0.178879
vn -0.918442 -0.325317 0.224976
vn 0.450562 -0.883881 -0.125443
vn -0.333145 0.938690 -0.088623
vn 0.872635 -0.429520 -0.232346
vn 0.920837 0.277054 -0.274399
vn 0.265976 0.922562 -0.279510
vn -0.277969 0.919601 -0.277557
vn -0.499603 -0.840714 0.208725
vn 0.832169 -0.395706 0.388443
vn 0.395737 -0.858032 0.327332
vn -0.937775 0.268875 0.219666
vn 0.521225 -0.676804 0.519836
vn 0.327118 -0.872101 0.363861
vn -0.610580 0.589172 0.529190
vn 0.604584 -0.519150 0.604095
vn -0.420685 0.746552 0.515427
vn 0.925613 0.261429 0.273651
vn 0.539047 0.588043 0.603012
vn -0.619431 0.613235 0.490112
vn -0.257919 0.923691 0.283264
vn -0.408966 -0.505127 0.759979
vn 0.129257 -0.360306 0.923828
vn 0.918716 -0.284271 0.274109
vn -0.549103 -0.055984 0.833862
vn -0.924286 0.208954 0.319382
vn 0.288132 0.914536 0.283859
vn 0.343857 -0.200836 0.917282
vn -0.282272 0.143265 0.948563
vn 0.156799 0.450287 0.878998
vn -0.698608 -0.512314 0.499451
vn -0.527603 -0.455582 0.716980
vn 0.220810 -0.245148 0.944000
vn -0.167038 0.228577 0.959076
# List of triangles:
f 3//3 1//1 2//2
f 1//1 13//13 2//2
f 2//2 13//13 14//14
f 13//13 22//22 14//14
f 14//14 22//22 32//32
f 22//22 43//43 32//32
f 32//32 43//43 48//48
f 43//43 53//53 48//48
f 48//48 53//53 55//55
f 53//53 56//56 55//55
f 55//55 56//56 54//54
f 56//56 52//52 54//54
f 54//54 52//52 44//44
f 52//52 41//41 44//44
f 44//44 41//41 23//23
f 41//41 11//11 23//23
f 23//23 11//11 12//12
f 11//11 1//1 12//12
f 12//12 1//1 3//3
f 3//3 2//2 4//4
f 2//2 14//14 4//4
f 4//4 14//14 15//15
f 14//14 25//25 15//15
f 15//15 25//25 37//37
f 25//25 45//45 37//37
f 37//37 45//45 55//55
f 45//45 33//33 55//55
f 55//55 33//33 48//48
f 33//33 32//32 48//48
f 4//4 5//5 3//3
f 5//5 12//12 3//3
f 8//8 6//6 7//7
f 6//6 9//9 7//7
f 7//7 9//9 17//17
f 9//9 19//19 17//17
f 17//17 19//19 28//28
f 19//19 39//39 28//28
f 28//28 39//39 38//38
f 39//39 46//46 38//38
f 38//38 46//46 49//49
f 46//46 50//50 49//49
f 49//49 50//50 35//35
f 50//50 36//36 35//35
f 35//35 36//36 30//30
f 36//36 29//29 30//30
f 30//30 29//29 16//16
f 29//29 18//18 16//16
f 16//16 18//18 8//8
f 18//18 21//21 8//8
f 8//8 21//21 6//6
f 21//21 22//22 6//6
f 6//6 22//22 10//10
f 22//22 13//13 10//10
f 10//10 13//13 1//1
f 1//1 9//9 10//10
f 9//9 6//6 10//10
f 4//4 15//15 5//5
f 15//15 24//24 5//5
f 5//5 24//24 23//23
f 24//24 44//44 23//23
f 8//8 7//7 16//16
f 7//7 17//17 16//16
f 16//16 17//17 27//27
f 17//17 28//28 27//27
f 27//27 28//28 34//34
f 28//28 38//38 34//34
f 34//34 38//38 35//35
f 38//38 49//49 35//35
f 19//19 9//9 20//20
f 9//9 1//1 20//20
f 20//20 1//1 11//11
f 12//12 5//5 23//23
f 14//14 26//26 25//25
f 26//26 45//45 25//25
f 18//18 31//31 21//21
f 31//31 42//42 21//21
f 21//21 42//42 43//43
f 42//42 47//47 43//43
f 43//43 47//47 53//53
f 47//47 46//46 53//53
f 53//53 46//46 51//51
f 46//46 40//40 51//51
f 51//51 40//40 41//41
f 40//40 20//20 41//41
f 41//41 20//20 11//11
f 32//32 33//33 14//14
f 33//33 26//26 14//14
f 27//27 34//34 16//16
f 34//34 35//35 16//16
f 16//16 35//35 30//30
f 29//29 36//36 18//18
f 36//36 31//31 18//18
f 20//20 40//40 19//19
f 40//40 39//39 19//19
f 31//31 36//36 42//42
f 36//36 47//47 42//42
f 22//22 21//21 43//43
f 44//44 24//24 37//37
f 24//24 15//15 37//37
f 45//45 26//26 33//33
f 40//40 46//46 39//39
f 36//36 50//50 47//47
f 50//50 46//46 47//47
f 41//41 52//52 51//51
f 52//52 56//56 51//51
f 51//51 56//56 53//53
f 44//44 37//37 54//54
f 37//37 55//55 54//54
f 59//59 57//57 58//58
f 57//57 60//60 58//58
f 58//58 60//60 68//68
f 60//60 78//78 68//68
f 68//68 78//78 77//77
f 78//78 91//91 77//77
f 77//77 91//91 100//100
f 91//91 106//106 100//100
f 100//100 106//106 107//107
f 106//106 108//108 107//107
f 107//107 108//108 93//93
f 108//108 95//95 93//93
f 93//93 95//95 82//82
f 95//95 72//72 82//82
f 82//82 72//72 69//69
f 72//72 57//57 69//69
f 69//69 57//57 59//59
f 62//62 60//60 61//61
f 60//60 57//57 61//61
f 61//61 57//57 73//73
f 57//57 72//72 73//73
f 73//73 72//72 90//90
f 72//72 95//95 90//90
f 90//90 95//95 103//103
f 95//95 108//108 103//103
f 103//103 108//108 101//101
f 108//108 106//106 101//101
f 101//101 106//106 88//88
f 106//106 91//91 88//88
f 88//88 91//91 78//78
f 62//62 61//61 63//63
f 61//61 65//65 63//63
f 63//63 65//65 66//66
f 65//65 75//75 66//66
f 66//66 75//75 85//85
f 75//75 86//86 85//85
f 85//85 86//86 99//99
f 86//86 75//75 99//99
f 99//99 75//75 98//98
f 75//75 73//73 98//98
f 98//98 73//73 104//104
f 73//73 90//90 104//104
f 104//104 90//90 103//103
f 62//62 63//63 64//64
f 63//63 66//66 64//64
f 64//64 66//66 83//83
f 66//66 84//84 83//83
f 83//83 84//84 96//96
f 84//84 66//66 96//96
f 96//96 66//66 97//97
f 66//66 85//85 97//97
f 97//97 85//85 105//105
f 85//85 99//99 105//105
f 105//105 99//99 97//97
f 99//99 98//98 97//97
f 97//97 98//98 112//112
f 98//98 110//110 112//112
f 112//112 110//110 111//111
f 110//110 94//94 111//111
f 111//111 94//94 97//97
f 94//94 96//96 97//97
f 59//59 58//58 67//67
f 58//58 68//68 67//67
f 67//67 68//68 76//76
f 68//68 77//77 76//76
f 76//76 77//77 87//87
f 77//77 100//100 87//87
f 87//87 100//100 80//80
f 100//100 93//93 80//80
f 80//80 93//93 79//79
f 93//93 69//69 79//79
f 79//79 69//69 67//67
f 69//69 59//59 67//67
f 60//60 62//62 70//70
f 62//62 71//71 70//70
f 70//70 71//71 81//81
f 71//71 83//83 81//81
f 81//81 83//83 92//92
f 83//83 94//94 92//92
f 92//92 94//94 110//110
f 62//62 64//64 71//71
f 64//64 83//83 71//71
f 61//61 73//73 65//65
f 73//73 74//74 65//65
f 65//65 74//74 75//75
f 74//74 73//73 75//75
f 79//79 67//67 80//80
f 67//67 87//87 80//80
f 60//60 70//70 78//78
f 70//70 88//88 78//78
f 87//87 67//67 76//76
f 88//88 70//70 89//89
f 70//70 81//81 89//89
f 89//89 81//81 92//92
f 93//93 82//82 69//69
f 88//88 89//89 101//101
f 89//89 92//92 101//101
f 101//101 92//92 110//110
f 83//83 102//102 94//94
f 102//102 96//96 94//94
f 102//102 83//83 96//96
f 93//93 100//100 107//107
f 103//103 101//101 109//109
f 101//101 110//110 109//109
f 109//109 110//110 103//103
f 110//110 104//104 103//103
f 98//98 104//104 110//110
f 112//112 111//111 97//97
